<svg xmlns="http://www.w3.org/2000/svg" xmlns:xlink="http://www.w3.org/1999/xlink" viewBox="0 0 250 160"><defs><style>.cls-1{isolation:isolate;}.cls-2{fill:url(#linear-gradient);}.cls-3{fill:#ffaea7;}.cls-4{fill:#fff;}.cls-5{fill:#414042;mix-blend-mode:screen;}.cls-6{fill:url(#linear-gradient-2);}.cls-7{fill:url(#linear-gradient-3);}.cls-8{fill:url(#linear-gradient-4);}.cls-9{fill:url(#linear-gradient-5);}.cls-10{fill:#49215b;}.cls-11{fill:#000b57;}.cls-12{fill:#00094a;}.cls-13{fill:#000d64;}.cls-14{fill:#522b12;}</style><linearGradient id="linear-gradient" x1="125" y1="125" x2="125" y2="-16.82" gradientUnits="userSpaceOnUse"><stop offset="0" stop-color="#feb05e"/><stop offset="0.45" stop-color="#ff5077"/><stop offset="1" stop-color="#4308ba"/></linearGradient><linearGradient id="linear-gradient-2" x1="125" y1="103" x2="125" y2="77.25" gradientUnits="userSpaceOnUse"><stop offset="0" stop-color="#f78b6f"/><stop offset="1" stop-color="#a94068"/></linearGradient><linearGradient id="linear-gradient-3" x1="125" y1="110" x2="125" y2="86.5" gradientUnits="userSpaceOnUse"><stop offset="0" stop-color="#ca656b"/><stop offset="1" stop-color="#783968"/></linearGradient><linearGradient id="linear-gradient-4" x1="125" y1="121.75" x2="125" y2="91.46" gradientUnits="userSpaceOnUse"><stop offset="0" stop-color="#6d305c"/><stop offset="1" stop-color="#3f1b5b"/></linearGradient><linearGradient id="linear-gradient-5" x1="112.56" y1="134" x2="112.56" y2="75" gradientUnits="userSpaceOnUse"><stop offset="0" stop-color="#49215b"/><stop offset="1" stop-color="#0f115b"/></linearGradient></defs><g class="cls-1"><g id="Layer_1" data-name="Layer 1"><rect class="cls-2" width="250" height="160"/><circle class="cls-3" cx="172.44" cy="89.8" r="20.21" transform="translate(54.82 244.61) rotate(-80.28)"/><path class="cls-4" d="M189.42,35.17a.42.42,0,1,1-.42-.42A.42.42,0,0,1,189.42,35.17Z"/><path class="cls-4" d="M76.49,24.53a.42.42,0,1,1-.42-.42A.41.41,0,0,1,76.49,24.53Z"/><circle class="cls-4" cx="36.65" cy="48.61" r="0.42"/><circle class="cls-4" cx="67.01" cy="70.68" r="0.42"/><path class="cls-5" d="M134.33,35.17a.42.42,0,1,1-.42-.42A.42.42,0,0,1,134.33,35.17Z"/><path class="cls-5" d="M91.59,53.86a.42.42,0,1,1-.42-.42A.42.42,0,0,1,91.59,53.86Z"/><path class="cls-5" d="M149.32,73a.42.42,0,1,1-.42-.42A.42.42,0,0,1,149.32,73Z"/><path class="cls-5" d="M102.92,7.5a.42.42,0,1,1-.42-.42A.42.42,0,0,1,102.92,7.5Z"/><path class="cls-4" d="M201.48,82.93a.42.42,0,1,1-.41-.42A.41.41,0,0,1,201.48,82.93Z"/><path class="cls-4" d="M233.34,58.75a.42.42,0,1,1-.42-.42A.42.42,0,0,1,233.34,58.75Z"/><path class="cls-4" d="M216.92,9.19a.42.42,0,1,1-.42-.42A.42.42,0,0,1,216.92,9.19Z"/><path class="cls-4" d="M98.26,44.91a.26.26,0,1,1-.26-.26A.26.26,0,0,1,98.26,44.91Z"/><circle class="cls-4" cx="112.56" cy="73.42" r="0.13"/><path class="cls-4" d="M55.48,58.25a.13.13,0,1,1-.13-.13A.13.13,0,0,1,55.48,58.25Z"/><path class="cls-4" d="M113.88,20a.13.13,0,0,1-.13.13.13.13,0,0,1,0-.26A.13.13,0,0,1,113.88,20Z"/><circle class="cls-4" cx="29.5" cy="53.18" r="0.26"/><circle class="cls-4" cx="12.5" cy="20.69" r="0.26"/><path class="cls-4" d="M67.26,37.19a.26.26,0,1,1-.25-.26A.26.26,0,0,1,67.26,37.19Z"/><path class="cls-4" d="M47.26,7.76A.26.26,0,1,1,47,7.5.26.26,0,0,1,47.26,7.76Z"/><circle class="cls-4" cx="107.05" cy="9.61" r="0.26"/><circle class="cls-4" cx="166.17" cy="24.11" r="0.26"/><circle class="cls-4" cx="239.17" cy="24.11" r="0.26"/><path class="cls-4" d="M233.6,90.06a.26.26,0,1,1-.26-.26A.26.26,0,0,1,233.6,90.06Z"/><circle class="cls-4" cx="144.59" cy="49.03" r="0.26"/><path class="cls-4" d="M145.69,9.87a.26.26,0,1,1-.26-.26A.26.26,0,0,1,145.69,9.87Z"/><path class="cls-4" d="M159.5,47.83a.26.26,0,1,1-.26-.25A.26.26,0,0,1,159.5,47.83Z"/><path class="cls-6" d="M0,75.51v80.54H250V79.73c-3.59.29-6,2.31-11.85,3.92a69.29,69.29,0,0,1-11.8,2.56c-4.49.63-4.77,2.57-7.47,2.52s-8.19,1.72-11.67,2.71-4.55-.86-7.76-.5-8.18-3.2-10.24-3.56-2.56,1.17-6,.81-9.75,3.43-16.44,2.71S149,86,146,85.76s-3.13-2-7.54-2.38-8.89-4.24-14.3-3.61S111,79.28,102.78,80s-9.25,2.25-14.51,2.07-16.79,2.34-21.06,1.44S60,82.52,55.4,81s-12.09-.54-14.8-1.35-5.88-3.72-13.09-4.8-6.54-1-10.24-2.23-6-1.44-8.82-.24S4.56,76.46.77,75.68Z"/><path class="cls-7" d="M0,87v63.71H250V86c-19.68,5-52.43,12.67-62.85,11-14.8-2.43-10.1-4-19.64-3.87s-10.81-2.61-16.29-2.66-17.92,5.18-20.77,4.51-9-2.8-21.48-.72-31.09,7.52-45.74,4.54-16.65-5.13-28-8.1S20.68,91.74,7.88,89C4.92,88.3,2.35,87.63,0,87Z"/><path class="cls-8" d="M5.34,105.35c-1.88,0-3.63.14-5.34.22v38.79H250V92.92a10,10,0,0,0-1.91-.08c-3.2.16-11.34,3.37-14.67,3.92s-7.65,2.41-12.33,3.08-9.13,1.85-10.73,2.79-4.94.94-8,.94-7.77-.86-11,.32-4.69,1.48-7.16,1.09-4.34-2.27-6.66-1.56-6.19.41-8.78.88a8,8,0,0,1-5.09-.24,9.92,9.92,0,0,0-4.35-.41,7.17,7.17,0,0,1-3-.41c-1.48-.35-4.07,1.12-4.9,2.06s-2.4.35-3.33.88a4.63,4.63,0,0,1-3.61.94,12.7,12.7,0,0,1-4.25-1,17.06,17.06,0,0,0-6.66-1.82c-3.79-.41-4.9-1.12-6.1-.77s-3.89.18-5.46.94a14.81,14.81,0,0,1-7.4,2.24,41.23,41.23,0,0,1-8.23-.47c-3.42-.47-5.37-1-7.86-1.12s-3.7-.88-6-2-8.24-.64-10.64-1.17a32.32,32.32,0,0,1-7.31-2.29A8.6,8.6,0,0,0,68.23,99a11.35,11.35,0,0,1-6.57.06c-2.86-.71-9.06-2.53-10.35-3.82s-4.26-3.12-6.39-2.82-4.07,1.64-6,2.11a35.83,35.83,0,0,0-6.19,1.88c-1.76.83-5.55,2.33-7.87,3.4a18.22,18.22,0,0,1-6.29,2.07,18.23,18.23,0,0,0-6.19,1.76C9.87,104.71,10,105.3,5.34,105.35Z"/><polygon class="cls-9" points="186.17 142.25 225.12 160 0 160 0 56.49 7.23 52.78 15.26 52.78 26.5 61.03 29.71 70.92 37.74 75.87 63.44 75.87 77.9 85.76 95.55 94 100.37 98.95 106.8 107.19 113.23 107.19 113.88 107.53 115.84 108.53 129.28 115.44 137.16 120.6 145.52 122.94 161.66 133.09 186.17 142.25"/><polygon class="cls-10" points="17.13 58.28 20.7 60.89 22.62 62.95 23.42 69.69 28.48 73.81 30.81 77.38 33.6 83.7 35.01 87.96 34.29 79.03 31.86 74.77 29.71 70.92 26.5 61.03 15.26 52.79 15.26 56.22 17.13 58.28"/><polygon class="cls-10" points="42.45 78.34 47.45 80.68 51.48 82.88 57.59 89.48 59.83 86.09 57.59 81.64 59.83 78.34 63.44 75.87 47.38 75.87 37.74 75.87 41.31 78.26 42.45 78.34"/><polygon class="cls-10" points="95.56 100.5 98.17 101.87 98.17 108.63 104.53 110.47 106 111.94 118.44 117.08 122.51 121.64 115.64 111.89 115.83 108.53 113.23 107.19 106.8 107.19 100.38 98.95 95.56 94 95.56 96.94 95.56 100.5"/><path class="cls-11" d="M41.37,155.09c-.51,1.54-.12,1.39-.24,3.48a4.05,4.05,0,0,0,0,1.43H23a3,3,0,0,0-.27-1.2,4.62,4.62,0,0,1-.5-2c0-.66,1-1.09,1.28-2.94s-.86-1.28-1-2.25.15-1.47,0-2.59.35-1.36.43-1.7a1.82,1.82,0,0,0,0-1.2c-.15-.39,0-.74,0-1.36s.3-.42.77-1.08-.16-2.9-.39-3.37,0,0-.11-.42.15-.47.46-1.2.7-.82,1.32-1.67.65,0,1.54-.27.35-.89.12-1.2-.39.08-1.12.43-1.05.42-1.32.11.27-.42.58-.58.23-.58,0-1.39,0,0,.62-1.35.85-1.17,1.16-1.9.7-.19.93-.85a7.39,7.39,0,0,1,.93-1.7c.39-.59.7-.93.47-1.2s-.62-.2-1.24-.39-.39.27-1.2.31a6.7,6.7,0,0,1-1.55,0c-.89-.12-1.08-.31-.77-.5a6.9,6.9,0,0,0,1.12-.66c.23-.23,1.82.08,2-.23s0-.66.47-.85a3.7,3.7,0,0,0,1.08-.51c.42-.35.81.16,1.2.16s.31-.08.31-.35-.12-.35-.16-.74-.42-.31-.66-.42-.61.08-1.12-.12a8.61,8.61,0,0,0-1.66-.23c-.54,0-.58-.16-.54-.5s1.24-.31,1.7-.35.62-.74.74-1,.69.24,1,.24.74-.24.7-.39-.31-.47-.43-.62a4.19,4.19,0,0,0-1.12-.81c-.5-.24,0-.47.08-1s-.39-.81-.7-1.28.47-.93.7-.93,1.58,1,1.93.85-.62-1.31-.62-1.78.27-.46.74-.77.31-.77.23-1.32.08-1.81.12-2.39a19.32,19.32,0,0,0,.31-2.36,4.27,4.27,0,0,1,.46-1.48s.54,1.71.62,2.21a18.38,18.38,0,0,1,.43,2.55c0,.78.38,1.24.27,1.86s-.39,1-.35,1.36a.8.8,0,0,0,.66.69c.34.12.58.24.46.54s-.43.24-.89.24-.35.54-.31,1.08.89,0,1.12,0a1.15,1.15,0,0,1,.7.62,1.49,1.49,0,0,1-1.05.7c-.5,0-.89.07-1.08.89s.89.93,1.43,1.35.35.58.82.93a2.16,2.16,0,0,0,1.31.35c.43,0,1.36.62.81.62s-1.35,0-2,0-.58-.08-1.2-.43-1.28,0-1.24.31.74.47.81.5a13.67,13.67,0,0,1,2.13.78,12.23,12.23,0,0,0,1.44.73c.42.24,1.5.82,1.23,1.13s-1.08.07-2-.24a14.32,14.32,0,0,1-2-.69c-.74-.39-.93-.82-1.28-.85s-.23.58-.46,1.27.15.78.54,1.51.73-.15,1.08,0a2.29,2.29,0,0,1,.93.7,4.47,4.47,0,0,0,1.66.62c.55.11,2-.23,1.78,0a1.78,1.78,0,0,1-1,.7,4.9,4.9,0,0,1-2.4,0c-1.39-.24-.7-.43-1.24-.7s-.89-.16-1,.81,1.86,1.82,2.33,2.48,2.74.81,3.32,1.12.51,1.36-.07,2.59.58,1.2,1.24,1.82.69,1.86.5,3.06a3,3,0,0,0,.69,2.48,3.15,3.15,0,0,1-.15,3.05c-.62.66,0,0-.12,1.24s0,0,.27,1.2-.23.31-.69,1.24.19.77.66,1a2,2,0,0,1,1.51,1.81C42.29,153.11,41.91,153.54,41.37,155.09Z"/><path class="cls-11" d="M28.88,132.5c-.34,1.55-.08,1.39-.16,3.48a6.77,6.77,0,0,0,0,1.44H16.23a4.16,4.16,0,0,0-.19-1.2,6.34,6.34,0,0,1-.35-2c0-.66.7-1.08.88-2.94S16,130,15.9,129.06s.11-1.47,0-2.6a2.89,2.89,0,0,1,.29-1.7,2.53,2.53,0,0,0,0-1.2,7,7,0,0,1,0-1.35c0-.66.22-.43.54-1.09s-.11-2.9-.27-3.36,0,0-.08-.43.11-.46.32-1.2.48-.81.91-1.66.45,0,1.07-.27.24-.89.08-1.2-.27.07-.78.42-.72.43-.91.12.19-.43.4-.58.16-.58,0-1.39,0,0,.42-1.36a16.71,16.71,0,0,1,.81-1.9c.18-.73.48-.19.64-.85a8.64,8.64,0,0,1,.64-1.7c.26-.58.48-.93.32-1.2s-.43-.19-.86-.39-.26.27-.82.31a3.2,3.2,0,0,1-1.07,0c-.62-.11-.75-.3-.54-.5s.64-.42.78-.66,1.25.08,1.39-.23,0-.66.32-.85.48-.19.74-.5.57.15.83.15.22-.08.22-.35-.08-.34-.11-.73-.29-.31-.45-.43-.43.08-.78-.11a3.87,3.87,0,0,0-1.15-.24c-.37,0-.4-.15-.37-.5s.85-.31,1.17-.35.43-.73.51-1,.48.23.7.23.5-.23.48-.39-.22-.46-.3-.62a3.65,3.65,0,0,0-.77-.81c-.35-.23,0-.46.05-1s-.27-.81-.48-1.27.32-.93.48-.93,1.1,1,1.34.84-.43-1.31-.43-1.77.19-.46.51-.77.21-.78.16-1.32.05-1.82.08-2.4a23.5,23.5,0,0,0,.21-2.36,5.65,5.65,0,0,1,.32-1.47s.38,1.7.43,2.21a23,23,0,0,1,.29,2.55,18,18,0,0,1,.19,1.86,12.8,12.8,0,0,0-.24,1.35.78.78,0,0,0,.45.7c.24.11.4.23.32.54s-.29.23-.61.23-.24.54-.21,1.09.61,0,.77,0,.48.46.48.62-.4.69-.72.69-.61.08-.75.89.62.93,1,1.36.24.58.56.93a1.15,1.15,0,0,0,.91.34c.29,0,.93.62.56.62s-.94,0-1.36,0-.4-.08-.83-.42a.49.49,0,0,0-.85.31c0,.27.5.46.56.5a7.55,7.55,0,0,1,1.46.77,8.43,8.43,0,0,0,1,.74c.3.23,1,.81.86,1.12s-.75.08-1.36-.23-.89-.27-1.39-.7-.64-.81-.88-.85-.16.58-.33,1.28.11.77.38,1.51.51-.16.75,0,.42.38.64.69a2.41,2.41,0,0,0,1.15.62c.37.12,1.36-.23,1.22,0a1.29,1.29,0,0,1-.69.7c-.48.2-.69.2-1.66,0s-.48-.42-.85-.7-.61-.15-.69.82,1.28,1.82,1.6,2.47,1.89.82,2.29,1.13.35,1.35-.05,2.59.4,1.2.86,1.82a4.91,4.91,0,0,1,.34,3.06,4,4,0,0,0,.48,2.47,4.46,4.46,0,0,1-.1,3.06c-.43.66,0,0-.08,1.24s0,0,.18,1.2-.16.31-.48,1.23.14.78.46,1a1.89,1.89,0,0,1,1,1.82A10.66,10.66,0,0,1,28.88,132.5Z"/><path class="cls-11" d="M64.89,145.75a9.7,9.7,0,0,0-.11,2.52,4.18,4.18,0,0,0,0,1H55.74a3.48,3.48,0,0,0-.13-.87,4.68,4.68,0,0,1-.26-1.42c0-.48.51-.79.64-2.13s-.42-.92-.48-1.62.08-1.06,0-1.88a2.08,2.08,0,0,1,.21-1.23,1.77,1.77,0,0,0,0-.86,5,5,0,0,1,0-1c0-.48.16-.31.39-.79a5.73,5.73,0,0,0-.19-2.43c-.14-.36,0,0-.06-.31s.07-.33.23-.86.35-.59.66-1.21.32,0,.77-.19.17-.65.06-.87-.2.06-.56.31-.53.3-.66.08.13-.31.29-.42.11-.42,0-1,0,0,.31-1a11.31,11.31,0,0,1,.58-1.38c.13-.53.35-.14.46-.61a6.65,6.65,0,0,1,.46-1.23c.2-.42.35-.67.24-.87s-.31-.14-.62-.28-.19.2-.6.23a2.48,2.48,0,0,1-.77,0c-.45-.09-.54-.23-.39-.37s.46-.3.56-.47.91.05,1-.17,0-.48.23-.62a1.7,1.7,0,0,0,.54-.36c.21-.25.4.11.6.11s.15,0,.15-.25-.06-.25-.08-.53-.21-.22-.33-.31-.3.06-.56-.08a3,3,0,0,0-.83-.17c-.27,0-.28-.11-.27-.36s.62-.23.85-.26.31-.53.37-.75.35.17.5.17.37-.17.35-.28-.15-.34-.21-.45a2.65,2.65,0,0,0-.56-.59c-.25-.17,0-.33,0-.7s-.2-.58-.35-.92.23-.67.35-.67.79.72,1,.61-.31-1-.31-1.28.14-.34.37-.56.15-.56.12-.95,0-1.32,0-1.74a16.54,16.54,0,0,0,.16-1.7,4.18,4.18,0,0,1,.23-1.07s.27,1.23.31,1.6a17.24,17.24,0,0,1,.21,1.84c0,.56.19.9.14,1.35a9,9,0,0,0-.18,1,.56.56,0,0,0,.33.5c.17.08.29.17.23.39s-.21.17-.44.17-.18.39-.16.78.45,0,.56,0,.35.34.35.45-.29.5-.52.5-.44.06-.54.65.44.67.71,1,.18.42.41.67a.85.85,0,0,0,.66.25c.21,0,.67.45.4.45s-.67,0-1,0-.29-.06-.6-.31-.64,0-.62.22.37.34.41.37a5.06,5.06,0,0,1,1.06.56,6.49,6.49,0,0,0,.71.53c.21.16.75.58.62.81s-.54.05-1-.17-.63-.2-1-.5-.46-.59-.64-.62-.11.42-.23.92.08.56.27,1.1.37-.12.54,0,.31.28.47.5a1.84,1.84,0,0,0,.83.45c.27.08,1-.17.88,0a.92.92,0,0,1-.5.5c-.35.14-.5.14-1.19,0s-.35-.3-.62-.5-.45-.11-.5.59.92,1.31,1.15,1.79,1.37.59,1.66.81.26,1,0,1.87.29.87.61,1.32a3.51,3.51,0,0,1,.25,2.21,2.91,2.91,0,0,0,.35,1.79,3.22,3.22,0,0,1-.08,2.21c-.3.47,0,0,0,.89s0,0,.13.87-.11.23-.35.9.1.56.33.72a1.38,1.38,0,0,1,.76,1.32A8,8,0,0,1,64.89,145.75Z"/><path class="cls-11" d="M44.07,134.6a10,10,0,0,0-.11,2.51,4.29,4.29,0,0,0,0,1H34.92a3,3,0,0,0-.13-.87,4.43,4.43,0,0,1-.25-1.43c0-.47.5-.78.63-2.12s-.42-.92-.48-1.62.08-1.07,0-1.88a2.24,2.24,0,0,1,.21-1.23,1.81,1.81,0,0,0,0-.87,5.9,5.9,0,0,1,0-1c0-.47.16-.3.39-.78a5.72,5.72,0,0,0-.19-2.43c-.14-.37,0,0-.06-.31s.08-.34.23-.87.35-.58.66-1.2.33,0,.77-.2.17-.64.06-.86-.2,0-.56.3-.52.31-.66.09.14-.31.29-.42.12-.42,0-1,0,0,.31-1a12.78,12.78,0,0,1,.58-1.37c.14-.53.35-.14.46-.61a5.81,5.81,0,0,1,.47-1.23c.19-.42.34-.68.23-.87s-.31-.14-.62-.28-.19.19-.6.22a2.22,2.22,0,0,1-.77,0c-.44-.08-.54-.22-.39-.36s.47-.31.56-.47.91,0,1-.17,0-.48.23-.62.35-.14.54-.36.41.11.6.11.15-.06.15-.25-.06-.25-.07-.53-.22-.23-.33-.31-.31.06-.56-.08a2.73,2.73,0,0,0-.83-.17c-.27,0-.29-.11-.27-.37s.61-.22.85-.25.31-.53.36-.75.35.16.51.16.36-.16.34-.28-.15-.33-.21-.44a2.45,2.45,0,0,0-.56-.59c-.25-.17,0-.34,0-.7s-.19-.59-.35-.92a.58.58,0,0,1,.35-.67c.11,0,.79.72,1,.61s-.3-1-.3-1.29.13-.33.36-.56.16-.55.12-1,0-1.31.06-1.73.17-1.26.15-1.71a4.07,4.07,0,0,1,.23-1.06s.27,1.23.31,1.59a17.78,17.78,0,0,1,.21,1.85,12.76,12.76,0,0,1,.14,1.34c-.06.48-.19.76-.18,1a.57.57,0,0,0,.33.51c.18.08.29.16.23.39s-.21.17-.44.17-.17.39-.15.78.44,0,.56,0,.34.34.34.45-.29.5-.52.5-.44.06-.54.65.45.67.72,1,.17.42.4.68a.86.86,0,0,0,.66.25c.21,0,.67.45.4.45s-.67,0-1,0-.29-.05-.6-.3a.36.36,0,0,0-.62.22c0,.2.37.34.41.36a5.91,5.91,0,0,1,1.06.56,5.41,5.41,0,0,0,.71.53c.22.17.76.59.62.82s-.54,0-1-.17-.64-.2-1-.51-.46-.58-.63-.61-.12.42-.24.92.08.56.27,1.09.37-.11.55,0a1.37,1.37,0,0,1,.46.51,1.94,1.94,0,0,0,.83.45c.27.08,1-.17.89,0a1,1,0,0,1-.51.5c-.34.14-.5.14-1.19,0s-.35-.31-.62-.5-.44-.11-.5.59.92,1.31,1.16,1.79,1.37.58,1.66.81.25,1,0,1.87.29.87.62,1.32a3.65,3.65,0,0,1,.25,2.21,2.88,2.88,0,0,0,.34,1.79,3.17,3.17,0,0,1-.07,2.21c-.31.47,0,0-.06.89s0,0,.13.87-.11.22-.34.89.09.56.33.73a1.36,1.36,0,0,1,.75,1.32A7.72,7.72,0,0,1,44.07,134.6Z"/><path class="cls-12" d="M61.81,153.36c-.68,2.09-.16,1.88-.32,4.71a5.47,5.47,0,0,0,.06,1.93H37a4,4,0,0,0-.37-1.62,6.29,6.29,0,0,1-.68-2.67c.05-.89,1.36-1.46,1.73-4s-1.15-1.73-1.31-3,.21-2,0-3.51.47-1.82.57-2.3a2.41,2.41,0,0,0,.06-1.62c-.21-.52,0-1-.06-1.83s.42-.57,1-1.46-.21-3.92-.52-4.55,0,0-.16-.57.21-.63.63-1.62.94-1.1,1.77-2.25.89,0,2.09-.37.48-1.2.16-1.62-.52.11-1.51.58-1.42.57-1.78.15.36-.57.78-.78.32-.79,0-1.88,0,0,.84-1.83,1.15-1.57,1.56-2.56.95-.27,1.26-1.15a9.68,9.68,0,0,1,1.25-2.3c.53-.79,1-1.26.63-1.63s-.83-.26-1.67-.52-.52.37-1.62.42a9.74,9.74,0,0,1-2.09-.05c-1.21-.16-1.47-.42-1-.68a8.34,8.34,0,0,0,1.52-.89c.31-.31,2.45.1,2.72-.31s.05-.89.62-1.15a5.2,5.2,0,0,0,1.47-.68c.57-.47,1.1.2,1.62.2s.42-.1.42-.47-.16-.47-.21-1-.58-.42-.89-.57-.84.1-1.52-.16a10.79,10.79,0,0,0-2.25-.31c-.73,0-.78-.21-.73-.68s1.68-.42,2.3-.47.84-1,1-1.42.94.32,1.36.32,1-.32.94-.53-.42-.62-.58-.83a5.88,5.88,0,0,0-1.52-1.1c-.67-.31,0-.63.11-1.31s-.52-1.09-.94-1.72.63-1.26.94-1.26,2.14,1.35,2.61,1.14-.83-1.76-.83-2.39.36-.63,1-1,.42-1,.31-1.77.11-2.46.16-3.25A21.65,21.65,0,0,0,48.53,90a5.7,5.7,0,0,1,.63-2s.73,2.3.83,3a22.77,22.77,0,0,1,.58,3.45c0,1,.52,1.67.36,2.51s-.52,1.41-.47,1.83a1.1,1.1,0,0,0,.89.94c.47.16.79.31.63.73s-.58.31-1.2.31-.47.74-.42,1.47,1.2-.05,1.52-.05a1.51,1.51,0,0,1,.94.83,2,2,0,0,1-1.42.94c-.68.06-1.2.11-1.46,1.21s1.2,1.25,1.94,1.83.47.78,1.09,1.25a3,3,0,0,0,1.78.47c.58,0,1.83.84,1.1.84s-1.83,0-2.67,0-.78-.1-1.62-.57-1.72,0-1.67.41,1,.63,1.1.68a19.52,19.52,0,0,1,2.87,1.05,16.26,16.26,0,0,0,1.94,1c.57.32,2,1.1,1.67,1.52s-1.46.1-2.67-.32a18.06,18.06,0,0,1-2.72-.94c-1-.52-1.25-1.09-1.72-1.15s-.31.79-.63,1.73.21,1,.73,2,1-.21,1.47-.06a3.12,3.12,0,0,1,1.25.95,6,6,0,0,0,2.25.83c.73.16,2.67-.31,2.4,0a2.27,2.27,0,0,1-1.35.94,6.56,6.56,0,0,1-3.25,0c-1.88-.31-.94-.57-1.67-.94s-1.2-.21-1.36,1.1,2.51,2.46,3.14,3.34,3.71,1.1,4.49,1.52.68,1.83-.1,3.5.78,1.62,1.67,2.46.94,2.51.68,4.13.37,2.4.94,3.35.63,3.24-.21,4.13,0,0-.15,1.67,0,0,.36,1.62-.31.42-.94,1.67.26,1,.89,1.36A2.67,2.67,0,0,1,63,149C63.06,150.69,62.54,151.27,61.81,153.36Z"/><path class="cls-12" d="M27.12,151.28c-.89,2.74-.2,2.47-.41,6.18a7.35,7.35,0,0,0,.07,2.54H0V118.87a1.89,1.89,0,0,0,.81-.09c1.51-.48.62-1.58.21-2.13s-.52-.21-1,.16v-7.27a3.79,3.79,0,0,0,.81-1.2c.48-1.31,1.24-.34,1.65-1.51a12.74,12.74,0,0,1,1.65-3c.69-1,1.24-1.64.82-2.12s-1.09-.35-2.19-.69-.69.48-2.13.55H0v-2.3c.89,0,1.86.06,2.05-.25.27-.62.07-1.17.82-1.52a6.08,6.08,0,0,0,1.93-.89c.75-.62,1.44.28,2.13.28s.55-.14.55-.62-.21-.62-.28-1.31-.75-.55-1.17-.75-1.1.13-2-.21a15,15,0,0,0-2.95-.41c-1,0-1-.28-1-.89s2.19-.55,3-.62,1.1-1.31,1.3-1.86,1.24.41,1.79.41,1.31-.41,1.24-.68-.55-.83-.76-1.1a7.6,7.6,0,0,0-2-1.44c-.89-.42,0-.83.14-1.72s-.69-1.44-1.24-2.27.82-1.65,1.24-1.65,2.81,1.78,3.43,1.5S7.2,80.93,7.2,80.1s.48-.82,1.31-1.37.55-1.37.41-2.34.14-3.22.21-4.26a31.42,31.42,0,0,0,.55-4.19,7.56,7.56,0,0,1,.82-2.61s1,3,1.1,3.92.82,3.16.75,4.53.69,2.2.49,3.3-.69,1.86-.62,2.41a1.44,1.44,0,0,0,1.16,1.23c.62.21,1,.41.83,1s-.76.42-1.58.42-.62,1-.55,1.92,1.58-.07,2-.07a2,2,0,0,1,1.24,1.1,2.65,2.65,0,0,1-1.86,1.24c-.89.07-1.58.13-1.92,1.58s1.58,1.65,2.54,2.4.62,1,1.44,1.65a3.88,3.88,0,0,0,2.34.62c.76.07,2.4,1.1,1.44,1.1s-2.4,0-3.5.07-1-.14-2.13-.76-2.27,0-2.2.55,1.31.82,1.44.89a24.28,24.28,0,0,1,3.78,1.38,22.82,22.82,0,0,0,2.54,1.3c.76.41,2.68,1.44,2.2,2s-1.92.14-3.5-.41-2.27-.48-3.57-1.23S12.7,96,12.08,95.9s-.41,1-.82,2.27.27,1.38,1,2.68,1.3-.27,1.92-.07A4.05,4.05,0,0,1,15.79,102a7.88,7.88,0,0,0,2.95,1.1c1,.2,3.51-.41,3.16-.07a3.13,3.13,0,0,1-1.78,1.24c-1.24.34-1.79.34-4.26,0s-1.24-.76-2.2-1.24-1.58-.28-1.79,1.44,3.3,3.23,4.13,4.4,4.87,1.44,5.9,2,.9,2.41-.13,4.6,1,2.13,2.19,3.23,1.24,3.3.9,5.43.48,3.16,1.23,4.4.83,4.26-.27,5.42,0,0-.21,2.2,0,0,.48,2.13-.41.55-1.23,2.2.34,1.37,1.17,1.79,2.61,1,2.67,3.22S28.09,148.53,27.12,151.28Z"/><path class="cls-12" d="M122.94,140.73a18.25,18.25,0,0,1-3.85,1.62,13.31,13.31,0,0,0-3.56,1.81c-4,2.64-8.66,7-17,8.45-2.19.38-4.52.84-6.88,1.35-9.51,2.06-19.54,4.89-22.86,6l-.09,0H0v-.54c1.27-.37,2.49-.71,3.59-1,.77-.21,1.48-.4,2.13-.55l.27-.06.64-.14.58-.12a7,7,0,0,1,.79-.12c4.08-.47,8.08-2.06,8.29-2.73a.09.09,0,0,0,0-.05c0-.65,3.23-2.6,6.48-2.46s4-.23,7.48-1.91,7.05-3.86,9.31-5.07,5.55-4.87,6.38-4.84,3.12,1.46,4.46.48a3,3,0,0,1,1.74-.43,53.18,53.18,0,0,1,5.78.74c3.24.39,5.09-3.43,6.35-5.65a1.08,1.08,0,0,1,.18-.24l0,0s.08-.06.12-.1l.06-.06h0c1.71-1.43,6.38.44,9.45,1.41l.48.13h.06a2.57,2.57,0,0,0,.46.07l.49,0a4.05,4.05,0,0,0,1.58-.32,6.46,6.46,0,0,0,1.34-.79l.32-.25.54-.43c.34-.28.69-.56,1-.83a8.18,8.18,0,0,1,.69-.45l.46-.25a4.13,4.13,0,0,1,.49-.22c1.67-.69,2.79-.15,5.4.73,3.08,1,2.08.22,6.36.39s5-.32,8.15.86,2.81,1.29,5,1.11,3.84,1.46,5.78,2.06a4.12,4.12,0,0,0,.47.13c1.64.44,2.7.32,4.8,1C119.15,139.86,121.13,140.33,122.94,140.73Z"/><path class="cls-13" d="M46,140.41h0c-.14.21-1.87,2.72-2,3.89s-1.47,1.57-2.29,2.36-5.86,5.6-5.82,4.62-7.55,5-9,6.26A33,33,0,0,1,23,160H0v-.54c1.27-.37,2.49-.71,3.59-1,.77-.21,1.48-.4,2.13-.55l.27-.06.64-.14.58-.12a7,7,0,0,1,.79-.12c4.08-.47,8.08-2.06,8.29-2.73a.09.09,0,0,0,0-.05c0-.65,3.23-2.6,6.48-2.46s4-.23,7.48-1.91,7.05-3.86,9.31-5.07S45.12,140.38,46,140.41Z"/><path class="cls-13" d="M57.93,141.2c3.24.39,5.09-3.43,6.35-5.65a1.51,1.51,0,0,1,.39-.44l-.08,1.95a4.76,4.76,0,0,0-.54,1.35c-.08.6-.38,2-.39,2.26s-1.8,3.21-1.8,3.21l-5.55,8.61a3.89,3.89,0,0,1,.27-1.72c.38-1,.08-1-.56,0a20,20,0,0,1-2.69,2.87,33.88,33.88,0,0,1-3,1.67c-.49.28,4.57-6.56,3.72-6.18s.07-.41.84-3.07-8.16-1.18-4.43-5.15a3,3,0,0,1,1.74-.43A53.18,53.18,0,0,1,57.93,141.2Z"/><path class="cls-13" d="M65.35,151.52c1.68-1.65,3.62-5.09,4.59-6.71.49-.82.62-1.86,1.27-2.46s2.53-2.85,2.56-3.54a7.85,7.85,0,0,1,.83-2.15h0c3,.66,4.37-1.69,6.53-3l.46-.25c1.28,2.83-.43,3.71-2.92,8.31-2.66,4.89-5.65,6.11-4.53,4.9s0-2.43-3.81,1.19A22.44,22.44,0,0,1,65.35,151.52Z"/><path class="cls-14" d="M80,134.72c-.31.41-2.7,2.32-3.73,2.27a4.92,4.92,0,0,1-1.64-.33h0c3,.66,4.37-1.69,6.53-3l.46-.25A9.42,9.42,0,0,0,80,134.72Z"/><path class="cls-13" d="M46,140.41h0a5.93,5.93,0,0,0-1.82,1.49,22.56,22.56,0,0,1-4.1,3.35c-.75.44-6.63,3.78-6.86,4s-6,3.27-6.52,3.45-5.29,2.18-6.09,2.68a37.39,37.39,0,0,1-5.42,3.3c-.59.21-1.81.74-3.13,1.34H0v-.54c1.27-.37,2.49-.71,3.59-1,.77-.21,1.48-.4,2.13-.55l.27-.06.64-.14.58-.12a7,7,0,0,1,.79-.12c4.08-.47,8.08-2.06,8.29-2.73a.09.09,0,0,0,0-.05c0-.65,3.23-2.6,6.48-2.46s4-.23,7.48-1.91,7.05-3.86,9.31-5.07S45.12,140.38,46,140.41Z"/><path class="cls-12" d="M241.1,91.29l-11.19,7.85c-4.28-.89-5.43-3.23-7.4-3.49-2.63-.35-3.36-.39-7.1-1.08l-1.71-.32c-5.29-1-5.29-1.19-9.9-1.59s-7.87-4.18-12.75-5.38-3.93,3.39-6.37,7.77-7.87,8-11,8a8.65,8.65,0,0,0-6.65,3.54c-.13.16-.26.32-.38.5a11.43,11.43,0,0,0-1,1.68c-.14.28-.27.56-.39.85-1.76,4.38-3.93,4-8,6.58-1.82,1.17-5,4.47-8.53,7.69a51.55,51.55,0,0,1-6.91,5.49c-2.1,1.31-4.12,2.12-5.84,2-6.52-.6-9.5,5.17-14.79,8s-4.21,3.39-8,3a7.16,7.16,0,0,0-3.83.66,15.83,15.83,0,0,0-3,1.91c-.84.64-1.7,1.33-2.62,2-3.26,2.4-9.22,4.39-14.65,4.39s-7.87.79-10.85,0c-.86-.24-11.29,1.94-14.27,1.61L40.86,160H250V91.29Z"/><path class="cls-13" d="M215.41,110l-9.91,9.25-10.75,13.67,4-2.67-7.75,8.5-6.32,7.71s23.57-19.21,25.57-22.92,8.25-5,10-6.29,12.5-6.25,13.5-7.5,5.25-9.5,5.25-9.5l2.1-9-11.19,7.85c-4.28-.89-5.43-3.23-7.4-3.49l3.74,6.1Z"/><path class="cls-13" d="M167,106.56c-.13.16-.26.32-.38.5a11.43,11.43,0,0,0-1,1.68c-.14.28-.27.56-.39.85-1.76,4.38-3.93,4-8,6.58-1.82,1.17-5,4.47-8.53,7.69a51.55,51.55,0,0,1-6.91,5.49c-2.1,1.31-4.12,2.12-5.84,2a9.65,9.65,0,0,0-6.33,1.64c-.29,1-.5,1.77-.55,1.85-.21.35-14.69,16.93-14.69,16.93l25.88-5.29L154,133.14s3.14-5.43,3.42-6.37,4-5.06,4-5.06l-1.59,4s4.77-6.54,5.08-7,2.2-4.29,2.2-4.29l1-5.27,2.32-5.24A9.72,9.72,0,0,0,167,106.56Z"/><path class="cls-13" d="M203.8,92.66a12.17,12.17,0,0,1-4.39-1.37h0l1.85,3s-.42,3.8-.93,4.5-8.42,10.75-8.42,10.75-10.53,15.4-8.3,13.31,6.52-6.1,5.56-4.22S180.59,132,178,136.88s20.83-25.24,21-24.42,12.88-18.54,16.38-17.89l-1.71-.32C208.41,93.26,208.41,93.06,203.8,92.66Z"/><path class="cls-13" d="M175,102.85h0c1.31-.17,1.77,1.67,1.13,3.31s.8,2.92.4,4.2-1.19,4.56-1.19,4.56,1.43-2.92,2-4.32,2-4.91,2-4.91l2.15-3.15,2.07-2c.16-.15,1.15-2.64,1.15-2.64V95.05C182.55,98.87,178.16,102.09,175,102.85Z"/><path class="cls-12" d="M249.77,142.32c-.48.91-.22,1.17.23,1.33V160H222.32a4.82,4.82,0,0,0-.44-1.93,7.62,7.62,0,0,1-.81-3.17c.07-1.06,1.62-1.75,2.06-4.73s-1.37-2.06-1.56-3.62.25-2.36-.06-4.17.56-2.17.69-2.73a2.94,2.94,0,0,0,.06-1.93c-.25-.63,0-1.19-.06-2.18s.49-.69,1.24-1.75-.25-4.66-.62-5.41,0,0-.19-.68.25-.75.75-1.93,1.12-1.31,2.11-2.68,1.06,0,2.49-.44.56-1.43.19-1.93-.62.13-1.8.69-1.68.68-2.12.18.44-.68.93-.93.38-.93-.06-2.24,0,0,1-2.18,1.37-1.87,1.86-3,1.12-.31,1.5-1.37a11.76,11.76,0,0,1,1.49-2.74c.62-.93,1.12-1.49.75-1.93s-1-.31-2-.62-.63.44-1.93.5a11.53,11.53,0,0,1-2.49-.06c-1.43-.19-1.75-.5-1.25-.81a9.93,9.93,0,0,0,1.81-1.06c.37-.37,2.92.12,3.23-.37s.07-1.06.75-1.37a5.45,5.45,0,0,0,1.74-.81c.69-.56,1.31.25,1.93.25s.5-.13.5-.56-.18-.56-.25-1.19-.68-.49-1.06-.68-1,.12-1.8-.19a13,13,0,0,0-2.68-.37c-.87,0-.93-.25-.87-.81s2-.5,2.74-.56,1-1.18,1.18-1.68,1.12.37,1.62.37,1.18-.37,1.12-.62-.5-.75-.68-1a7.29,7.29,0,0,0-1.81-1.3c-.81-.38,0-.75.13-1.56s-.63-1.31-1.12-2.05.74-1.5,1.12-1.5,2.55,1.61,3.11,1.36-1-2.1-1-2.85.44-.75,1.19-1.25.49-1.24.37-2.11.12-2.93.19-3.86a26,26,0,0,0,.49-3.8,6.79,6.79,0,0,1,.75-2.36s.87,2.74,1,3.54a29,29,0,0,1,.68,4.11c0,1.25.62,2,.44,3s-.63,1.68-.56,2.18a1.3,1.3,0,0,0,1.05,1.12c.57.19.94.37.75.87s-.68.37-1.43.37-.56.88-.5,1.75,1.43-.06,1.81-.06a1.8,1.8,0,0,1,1.12,1,2.42,2.42,0,0,1-1.68,1.12,1.56,1.56,0,0,0-1.75,1.43c-.31,1.37,1.44,1.5,2.31,2.18s.56.94,1.3,1.5a3.59,3.59,0,0,0,2.12.56c.69.06,2.18,1,1.31,1s-2.18,0-3.18.06-.93-.12-1.93-.68-2.05,0-2,.5,1.18.74,1.31.81a21.35,21.35,0,0,1,3.42,1.24,19.53,19.53,0,0,0,2.31,1.18c.68.38,2.42,1.31,2,1.81s-1.75.12-3.18-.37-2-.44-3.23-1.12-1.5-1.31-2.06-1.37-.37.93-.74,2,.24,1.24.87,2.43,1.18-.25,1.74-.06a3.53,3.53,0,0,1,1.49,1.12,7.29,7.29,0,0,0,2.68,1c.87.19,3.17-.37,2.86-.06a2.76,2.76,0,0,1-1.62,1.12c-1.12.31-1.61.31-3.85,0s-1.12-.69-2-1.12-1.43-.25-1.61,1.31,3,2.92,3.73,4,4.42,1.31,5.35,1.8.81,2.18-.12,4.18.93,1.92,2,2.92,1.12,3,.81,4.92a3.81,3.81,0,0,0,.23,2.42v12A1.81,1.81,0,0,0,249.77,142.32Z"/><path class="cls-11" d="M141.36,155.68c-.41,1.36-.1,1.23-.19,3.06a4.2,4.2,0,0,0,0,1.26H126.52a2.7,2.7,0,0,0-.22-1.05,4.33,4.33,0,0,1-.4-1.74c0-.58.81-1,1-2.58s-.69-1.12-.78-2,.12-1.3,0-2.28.28-1.19.34-1.5a1.7,1.7,0,0,0,0-1,4.91,4.91,0,0,1,0-1.19c0-.58.25-.38.63-1s-.13-2.55-.32-3,0,0-.09-.38.12-.41.38-1,.56-.72,1.06-1.46.53,0,1.25-.24.28-.78.1-1.06-.32.07-.91.38-.85.37-1.07.1.22-.37.47-.51.19-.51,0-1.22,0,0,.5-1.19.69-1,.94-1.67.56-.17.75-.75a6.72,6.72,0,0,1,.75-1.49c.32-.51.57-.82.38-1.06s-.5-.17-1-.34-.32.24-1,.27a5.22,5.22,0,0,1-1.25,0c-.72-.1-.88-.27-.63-.44a5.27,5.27,0,0,0,.91-.58c.18-.2,1.47.07,1.62-.2s0-.58.38-.75a2.8,2.8,0,0,0,.88-.44c.34-.31.65.13,1,.13s.25-.07.25-.3-.1-.31-.13-.65-.34-.27-.53-.37-.5.06-.91-.11a6.3,6.3,0,0,0-1.34-.2c-.44,0-.47-.14-.44-.44s1-.27,1.38-.31.5-.64.59-.92.56.21.81.21.6-.21.57-.34-.25-.41-.35-.55a3.61,3.61,0,0,0-.9-.71c-.41-.2,0-.41.06-.85s-.32-.71-.57-1.12.38-.82.57-.82,1.28.88,1.56.74-.5-1.15-.5-1.55.22-.41.6-.68.25-.68.18-1.16.07-1.6.1-2.11a16.23,16.23,0,0,0,.25-2.07,4.07,4.07,0,0,1,.37-1.3s.44,1.5.5,1.94a15.53,15.53,0,0,1,.35,2.25c0,.68.31,1.09.22,1.63a8.61,8.61,0,0,0-.28,1.19.69.69,0,0,0,.53.61c.28.1.47.21.37.48s-.34.2-.72.2-.28.48-.25,1,.72,0,.91,0,.56.41.56.54a1.18,1.18,0,0,1-.84.62c-.41,0-.72.06-.88.78s.72.81,1.16,1.19.28.51.66.81a1.6,1.6,0,0,0,1.06.31c.35,0,1.1.54.66.54s-1.1,0-1.6,0-.47-.07-1-.38-1,0-1,.28.6.4.66.44a10.56,10.56,0,0,1,1.72.68,10,10,0,0,0,1.16.64c.34.21,1.22.72,1,1s-.88.07-1.6-.2a10.29,10.29,0,0,1-1.62-.62c-.6-.34-.75-.71-1-.74s-.18.51-.37,1.12.12.68.44,1.32.59-.13.87,0a1.8,1.8,0,0,1,.75.61,3.5,3.5,0,0,0,1.35.55c.44.1,1.6-.21,1.44,0a1.42,1.42,0,0,1-.81.61,3.59,3.59,0,0,1-1.94,0c-1.13-.2-.57-.37-1-.61s-.72-.13-.81.72,1.5,1.59,1.88,2.17,2.22.72,2.69,1,.41,1.19-.06,2.28.47,1.05,1,1.59a3.41,3.41,0,0,1,.41,2.69,2.78,2.78,0,0,0,.56,2.18,3,3,0,0,1-.13,2.68c-.5.58,0,0-.09,1.09s0,0,.22,1.06-.19.27-.56,1.08.15.68.53.89a1.69,1.69,0,0,1,1.22,1.6A7.28,7.28,0,0,1,141.36,155.68Z"/><path class="cls-12" d="M162.61,153.92c-.57,1.91-.13,1.72-.26,4.31a6.2,6.2,0,0,0,0,1.77H141.72a4.05,4.05,0,0,0-.31-1.48,6.06,6.06,0,0,1-.57-2.45c0-.81,1.14-1.34,1.45-3.64s-1-1.58-1.1-2.77.18-1.82,0-3.21.39-1.68.48-2.11a2.42,2.42,0,0,0,.05-1.49c-.18-.47,0-.91-.05-1.67s.35-.53.88-1.34-.17-3.59-.44-4.17,0,0-.13-.53.18-.57.53-1.48.79-1,1.5-2.06.75,0,1.76-.34.4-1.1.13-1.48-.44.1-1.28.53-1.19.52-1.49.14.3-.53.66-.72.26-.72-.05-1.72,0,0,.71-1.68,1-1.44,1.32-2.35.79-.23,1.06-1a9.27,9.27,0,0,1,1.06-2.11c.44-.71.79-1.15.53-1.48s-.71-.24-1.41-.48-.45.34-1.37.38a7.41,7.41,0,0,1-1.76,0c-1-.15-1.24-.39-.89-.63a6.54,6.54,0,0,0,1.28-.81c.27-.29,2.07.09,2.29-.29s0-.81.53-1a3.73,3.73,0,0,0,1.24-.63c.48-.43.92.2,1.36.2s.36-.1.36-.43-.14-.44-.18-.91-.48-.39-.75-.53-.7.09-1.28-.14a8.25,8.25,0,0,0-1.89-.29c-.62,0-.66-.19-.62-.62s1.41-.39,1.94-.44.7-.91.84-1.29.79.29,1.14.29.84-.29.8-.48-.36-.58-.49-.77a4.94,4.94,0,0,0-1.28-1c-.57-.29,0-.58.09-1.2s-.44-1-.79-1.58.53-1.15.79-1.15,1.81,1.24,2.21,1-.71-1.61-.71-2.19.31-.57.84-1,.35-1,.26-1.63.09-2.25.13-3a22.54,22.54,0,0,0,.36-2.93A5.64,5.64,0,0,1,152,94s.61,2.11.7,2.73a23.27,23.27,0,0,1,.49,3.16c0,1,.44,1.54.31,2.3a11.5,11.5,0,0,0-.4,1.68,1,1,0,0,0,.75.86c.39.15.66.29.53.67s-.49.29-1,.29-.39.67-.35,1.34,1,0,1.28,0,.79.58.79.77a1.73,1.73,0,0,1-1.19.86c-.57,0-1,.1-1.23,1.1s1,1.15,1.63,1.68.4.72.92,1.15a2.36,2.36,0,0,0,1.5.43c.49,0,1.55.77.93.77s-1.54,0-2.25,0-.66-.09-1.37-.52-1.45,0-1.41.38.84.57.93.62a15.3,15.3,0,0,1,2.42,1,14.85,14.85,0,0,0,1.64.91c.48.29,1.71,1,1.41,1.39s-1.24.09-2.25-.29a14,14,0,0,1-2.29-.86c-.84-.48-1.06-1-1.46-1.05s-.26.71-.53,1.58.18.95.62,1.86.84-.19,1.23,0a2.6,2.6,0,0,1,1.06.86,4.81,4.81,0,0,0,1.9.76c.61.15,2.24-.28,2,0a2,2,0,0,1-1.14.86,5.07,5.07,0,0,1-2.74,0c-1.58-.29-.79-.53-1.41-.86s-1-.19-1.14,1,2.11,2.25,2.64,3.07,3.13,1,3.79,1.39.58,1.67-.08,3.21.66,1.48,1.41,2.25.79,2.3.57,3.78a4,4,0,0,0,.79,3.07,4.22,4.22,0,0,1-.17,3.78c-.71.81,0,0-.14,1.53s0,0,.31,1.49-.26.38-.79,1.53.22,1,.75,1.24a2.39,2.39,0,0,1,1.72,2.25C163.67,151.48,163.23,152,162.61,153.92Z"/></g></g></svg>