<svg xmlns="http://www.w3.org/2000/svg" viewBox="0 0 265.95 283.95"><defs><style>.cls-1{fill:#e8d11f;}.cls-2{fill:#47e78f;}.cls-3{fill:#08f2e7;}.cls-4{opacity:0.7;}.cls-5{fill:#fff;}</style></defs><g id="Layer_2" data-name="Layer 2"><g id="Capa_1" data-name="Capa 1"><circle class="cls-1" cx="15.49" cy="8.99" r="8.99"/><path class="cls-2" d="M66.49.58a51,51,0,1,0,51,51A51,51,0,0,0,66.49.58Zm0,80.33A29.33,29.33,0,1,1,95.83,51.58,29.33,29.33,0,0,1,66.49,80.91Z"/><path class="cls-1" d="M66.82,67.62a12.7,12.7,0,0,1-12.7-12.7c0-.07,0-.14,0-.2H79.52c0,.06,0,.13,0,.2A12.7,12.7,0,0,1,66.82,67.62Z"/><path class="cls-1" d="M49.82,55.44a4.77,4.77,0,1,0-4.77-4.76A4.77,4.77,0,0,0,49.82,55.44Z"/><path class="cls-1" d="M83.17,55.44a4.77,4.77,0,1,0-4.77-4.76A4.76,4.76,0,0,0,83.17,55.44Z"/><path class="cls-2" d="M128.6,160.63l-24.55-42.51a16.57,16.57,0,0,0-14.16-8.28h-.84a16.6,16.6,0,0,0-14.17,8.28l-.1.18a11.18,11.18,0,0,1-19.36,0h0a16.4,16.4,0,0,0-10.69-7.83l-.18,0c-.41-.08-.82-.16-1.23-.21l-.52-.06c-.32,0-.63-.06-.95-.07s-.5,0-.75,0-.49,0-.74,0-.62,0-.93.06l-.58.07c-.37,0-.73.12-1.09.19l-.41.09c-.43.1-.86.22-1.28.36l-.2.06a16.26,16.26,0,0,0-6.68,4.27l-.2.21c-.18.19-.33.39-.5.59s-.42.51-.62.77l-.07.11c-.36.5-.69,1-1,1.56L2.19,160.92a16.29,16.29,0,0,0,28.24,16.24l6.33-10.93a4.76,4.76,0,0,1,8.25,0l5,8.57a16.49,16.49,0,0,0,16.33,8.12,16.59,16.59,0,0,0,14.28-8.28l4.73-8.21a4.81,4.81,0,0,1,8.33,0l6.23,10.79a16.58,16.58,0,0,0,22.66,6.07h0A16.59,16.59,0,0,0,128.6,160.63Z"/><path d="M155.65,44a30.9,30.9,0,0,1,9.29-1.48c.79,0,2.33.1,4.62.29a25.58,25.58,0,0,1,8.49,2.74A30.85,30.85,0,0,1,187,52.08a30.23,30.23,0,0,1,6.11,9.38A29.75,29.75,0,0,1,195.32,73V92.84a10.21,10.21,0,0,1-1.43,5.31,10.81,10.81,0,0,1-3.82,3.84,10.61,10.61,0,0,1-10.64,0,10.71,10.71,0,0,1-3.84-3.84,10.21,10.21,0,0,1-1.43-5.31V73a9,9,0,0,0-1.24-4.67A9.4,9.4,0,0,0,169.58,65a9.36,9.36,0,0,0-9.31,0,9.54,9.54,0,0,0-3.36,3.35A8.91,8.91,0,0,0,155.65,73V92.84a10.2,10.2,0,0,1-1.42,5.31,10.89,10.89,0,0,1-3.82,3.84,10.63,10.63,0,0,1-10.65,0,10.76,10.76,0,0,1-3.83-3.84,10.21,10.21,0,0,1-1.43-5.31V13.51a10.23,10.23,0,0,1,1.43-5.33,10.78,10.78,0,0,1,3.83-3.82,10.63,10.63,0,0,1,10.65,0,10.92,10.92,0,0,1,3.82,3.82,10.22,10.22,0,0,1,1.42,5.33Z"/><path class="cls-2" d="M155.65,44a30.9,30.9,0,0,1,9.29-1.48c.79,0,2.33.1,4.62.29a25.58,25.58,0,0,1,8.49,2.74A30.85,30.85,0,0,1,187,52.08a30.23,30.23,0,0,1,6.11,9.38A29.75,29.75,0,0,1,195.32,73V92.84a10.21,10.21,0,0,1-1.43,5.31,10.81,10.81,0,0,1-3.82,3.84,10.61,10.61,0,0,1-10.64,0,10.71,10.71,0,0,1-3.84-3.84,10.21,10.21,0,0,1-1.43-5.31V73a9,9,0,0,0-1.24-4.67A9.4,9.4,0,0,0,169.58,65a9.36,9.36,0,0,0-9.31,0,9.54,9.54,0,0,0-3.36,3.35A8.91,8.91,0,0,0,155.65,73V92.84a10.2,10.2,0,0,1-1.42,5.31,10.89,10.89,0,0,1-3.82,3.84,10.63,10.63,0,0,1-10.65,0,10.76,10.76,0,0,1-3.83-3.84,10.21,10.21,0,0,1-1.43-5.31V13.51a10.23,10.23,0,0,1,1.43-5.33,10.78,10.78,0,0,1,3.83-3.82,10.63,10.63,0,0,1,10.65,0,10.92,10.92,0,0,1,3.82,3.82,10.22,10.22,0,0,1,1.42,5.33Z"/><path d="M183.79,114.86a10.12,10.12,0,0,1,5.31,1.43,10.73,10.73,0,0,1,3.84,3.82,10.19,10.19,0,0,1,1.43,5.32v59.5A29.7,29.7,0,0,1,192,196.79,30.71,30.71,0,0,1,175.74,213a30.62,30.62,0,0,1-23.6,0,30.71,30.71,0,0,1-16.23-16.22,29.76,29.76,0,0,1-2.36-11.81A10.14,10.14,0,0,1,135,179.6a10.78,10.78,0,0,1,3.83-3.82,10.59,10.59,0,0,1,10.63,0,10.86,10.86,0,0,1,3.83,3.82,10.14,10.14,0,0,1,1.43,5.33,8.86,8.86,0,0,0,1.26,4.64,9.49,9.49,0,0,0,3.36,3.36,9.17,9.17,0,0,0,9.28,0,9.65,9.65,0,0,0,3.36-3.36,8.94,8.94,0,0,0,1.25-4.64V174.22a30.4,30.4,0,0,1-21.1-.92,30.71,30.71,0,0,1-16.2-16.25,29.68,29.68,0,0,1-2.36-11.78V125.43a10.1,10.1,0,0,1,1.43-5.32,10.7,10.7,0,0,1,3.83-3.82,10.59,10.59,0,0,1,10.63,0,10.78,10.78,0,0,1,3.83,3.82,10.1,10.1,0,0,1,1.43,5.32v19.84a8.86,8.86,0,0,0,1.26,4.64,9.49,9.49,0,0,0,3.36,3.36,9.24,9.24,0,0,0,9.28,0,9.65,9.65,0,0,0,3.36-3.36,8.94,8.94,0,0,0,1.25-4.64V125.43a10.19,10.19,0,0,1,1.43-5.32,10.78,10.78,0,0,1,3.83-3.82A10.18,10.18,0,0,1,183.79,114.86Z"/><path class="cls-2" d="M183.79,114.86a10.12,10.12,0,0,1,5.31,1.43,10.73,10.73,0,0,1,3.84,3.82,10.19,10.19,0,0,1,1.43,5.32v59.5A29.7,29.7,0,0,1,192,196.79,30.71,30.71,0,0,1,175.74,213a30.62,30.62,0,0,1-23.6,0,30.71,30.71,0,0,1-16.23-16.22,29.76,29.76,0,0,1-2.36-11.81A10.14,10.14,0,0,1,135,179.6a10.78,10.78,0,0,1,3.83-3.82,10.59,10.59,0,0,1,10.63,0,10.86,10.86,0,0,1,3.83,3.82,10.14,10.14,0,0,1,1.43,5.33,8.86,8.86,0,0,0,1.26,4.64,9.49,9.49,0,0,0,3.36,3.36,9.17,9.17,0,0,0,9.28,0,9.65,9.65,0,0,0,3.36-3.36,8.94,8.94,0,0,0,1.25-4.64V174.22a30.4,30.4,0,0,1-21.1-.92,30.71,30.71,0,0,1-16.2-16.25,29.68,29.68,0,0,1-2.36-11.78V125.43a10.1,10.1,0,0,1,1.43-5.32,10.7,10.7,0,0,1,3.83-3.82,10.59,10.59,0,0,1,10.63,0,10.78,10.78,0,0,1,3.83,3.82,10.1,10.1,0,0,1,1.43,5.32v19.84a8.86,8.86,0,0,0,1.26,4.64,9.49,9.49,0,0,0,3.36,3.36,9.24,9.24,0,0,0,9.28,0,9.65,9.65,0,0,0,3.36-3.36,8.94,8.94,0,0,0,1.25-4.64V125.43a10.19,10.19,0,0,1,1.43-5.32,10.78,10.78,0,0,1,3.83-3.82A10.18,10.18,0,0,1,183.79,114.86Z"/><path d="M42.78,263.27a8.24,8.24,0,0,1,4.32,1.17,8.82,8.82,0,0,1,3.12,3.1,8.66,8.66,0,0,1,0,8.66,8.77,8.77,0,0,1-3.12,3.11,8.23,8.23,0,0,1-4.32,1.16H10.53a8.24,8.24,0,0,1-4.33-1.16,8.82,8.82,0,0,1-3.11-3.11,8.38,8.38,0,0,1-1.16-4.33,10.19,10.19,0,0,1,.09-1.4,8.88,8.88,0,0,1,.58-1.9c.33-.82.87-2,1.63-3.59s1.83-3.71,3.2-6.42,3.13-6.2,5.29-10.44Q18.41,237,29,216H10.53a8.33,8.33,0,0,1-4.33-1.16,8.93,8.93,0,0,1-3.11-3.12,8.64,8.64,0,0,1,0-8.65,8.82,8.82,0,0,1,3.11-3.11,8.33,8.33,0,0,1,4.33-1.16H42.78a8.32,8.32,0,0,1,4.32,1.16,8.77,8.77,0,0,1,3.12,3.11,8.31,8.31,0,0,1,1.16,4.33,8.78,8.78,0,0,1-.1,1.4,9.61,9.61,0,0,1-.58,1.88q-.48,1.23-1.62,3.6c-.76,1.58-1.83,3.72-3.2,6.44s-3.14,6.19-5.29,10.41q-5.69,11.16-16.28,32.16Z"/><path d="M74.25,280.41a24,24,0,0,1-9.62-1.94,25,25,0,0,1-13.18-13.21,24.93,24.93,0,0,1,0-19.19,25,25,0,0,1,13.21-13.18,24.87,24.87,0,0,1,19.21,0,24.59,24.59,0,0,1,7.87,5.32,24.88,24.88,0,0,1,5.31,7.88,24.84,24.84,0,0,1,0,19.2,25.06,25.06,0,0,1-13.2,13.2A24.13,24.13,0,0,1,74.25,280.41Zm0-32.25a7.32,7.32,0,0,0-3.77,1,7.73,7.73,0,0,0-2.73,2.72,7.53,7.53,0,0,0,0,7.57,7.76,7.76,0,0,0,2.73,2.73,7.51,7.51,0,0,0,7.56,0,7.81,7.81,0,0,0,2.72-2.73,7.53,7.53,0,0,0,0-7.57A7.79,7.79,0,0,0,78,249.17,7.31,7.31,0,0,0,74.25,248.16Z"/><path d="M116.65,233.22a24.44,24.44,0,0,1,9.91-2.28h.34a24.4,24.4,0,0,1,9.22,1.78,25.09,25.09,0,0,1,7.94,5.1,24.68,24.68,0,0,1,5.58,7.89,24,24,0,0,1,2.05,10v16.12a8.32,8.32,0,0,1-1.16,4.32,8.77,8.77,0,0,1-3.11,3.12,8.64,8.64,0,0,1-8.65,0,8.88,8.88,0,0,1-3.12-3.12,8.32,8.32,0,0,1-1.16-4.32V255.69a7.29,7.29,0,0,0-1-3.8,7.79,7.79,0,0,0-2.72-2.72,7.56,7.56,0,0,0-7.55,0,7.84,7.84,0,0,0-2.74,2.72,7.29,7.29,0,0,0-1,3.8v16.12a8.23,8.23,0,0,1-1.16,4.32,8.82,8.82,0,0,1-3.1,3.12,8.66,8.66,0,0,1-8.66,0,8.77,8.77,0,0,1-3.11-3.12,8.24,8.24,0,0,1-1.17-4.32V239.56a8.3,8.3,0,0,1,1-4,8.78,8.78,0,0,1,2.54-2.9,8.92,8.92,0,0,1,3.48-1.53,9.23,9.23,0,0,1,1.66-.15,11.14,11.14,0,0,1,2.59.38A7.6,7.6,0,0,1,116.65,233.22Z"/><path d="M189.31,260a8.32,8.32,0,0,1,4.35,1.17,8.69,8.69,0,0,1,3.1,3.13,8.27,8.27,0,0,1,1.15,4.3,7.81,7.81,0,0,1-1.16,4.22,11.86,11.86,0,0,1-3.08,3.3,19.48,19.48,0,0,1-4.31,2.38,28.07,28.07,0,0,1-4.9,1.44,25.68,25.68,0,0,1-4.8.48,24.13,24.13,0,0,1-9.6-1.92,24.93,24.93,0,0,1-13.19-13.19,24.93,24.93,0,0,1,0-19.21A24.93,24.93,0,0,1,170,232.89a24,24,0,0,1,9.62-1.93,25.69,25.69,0,0,1,4.69.47,26.31,26.31,0,0,1,4.88,1.39,19.1,19.1,0,0,1,4.32,2.36,11.73,11.73,0,0,1,3.11,3.34,8.19,8.19,0,0,1,1.17,4.35,8.51,8.51,0,0,1-.64,3.24,8.67,8.67,0,0,1-1.88,2.85L181.23,263a6.93,6.93,0,0,0,1.72-.6,13.32,13.32,0,0,0,1.38-.84,11.1,11.1,0,0,1,2-1.12A7.42,7.42,0,0,1,189.31,260Zm-17.9-6,7.52-7.53a7.26,7.26,0,0,0-3.79,1,7.65,7.65,0,0,0-2.72,2.73A7.2,7.2,0,0,0,171.41,254Z"/><path class="cls-2" d="M42.78,263.27a8.24,8.24,0,0,1,4.32,1.17,8.82,8.82,0,0,1,3.12,3.1,8.66,8.66,0,0,1,0,8.66,8.77,8.77,0,0,1-3.12,3.11,8.23,8.23,0,0,1-4.32,1.16H10.53a8.24,8.24,0,0,1-4.33-1.16,8.82,8.82,0,0,1-3.11-3.11,8.38,8.38,0,0,1-1.16-4.33,10.19,10.19,0,0,1,.09-1.4,8.88,8.88,0,0,1,.58-1.9c.33-.82.87-2,1.63-3.59s1.83-3.71,3.2-6.42,3.13-6.2,5.29-10.44Q18.41,237,29,216H10.53a8.33,8.33,0,0,1-4.33-1.16,8.93,8.93,0,0,1-3.11-3.12,8.64,8.64,0,0,1,0-8.65,8.82,8.82,0,0,1,3.11-3.11,8.33,8.33,0,0,1,4.33-1.16H42.78a8.32,8.32,0,0,1,4.32,1.16,8.77,8.77,0,0,1,3.12,3.11,8.31,8.31,0,0,1,1.16,4.33,8.78,8.78,0,0,1-.1,1.4,9.61,9.61,0,0,1-.58,1.88q-.48,1.23-1.62,3.6c-.76,1.58-1.83,3.72-3.2,6.44s-3.14,6.19-5.29,10.41q-5.69,11.16-16.28,32.16Z"/><path class="cls-2" d="M74.25,280.41a24,24,0,0,1-9.62-1.94,25,25,0,0,1-13.18-13.21,24.93,24.93,0,0,1,0-19.19,25,25,0,0,1,13.21-13.18,24.87,24.87,0,0,1,19.21,0,24.59,24.59,0,0,1,7.87,5.32,24.88,24.88,0,0,1,5.31,7.88,24.84,24.84,0,0,1,0,19.2,25.06,25.06,0,0,1-13.2,13.2A24.13,24.13,0,0,1,74.25,280.41Zm0-32.25a7.32,7.32,0,0,0-3.77,1,7.73,7.73,0,0,0-2.73,2.72,7.53,7.53,0,0,0,0,7.57,7.76,7.76,0,0,0,2.73,2.73,7.51,7.51,0,0,0,7.56,0,7.81,7.81,0,0,0,2.72-2.73,7.53,7.53,0,0,0,0-7.57A7.79,7.79,0,0,0,78,249.17,7.31,7.31,0,0,0,74.25,248.16Z"/><path class="cls-2" d="M116.65,233.22a24.44,24.44,0,0,1,9.91-2.28h.34a24.4,24.4,0,0,1,9.22,1.78,25.09,25.09,0,0,1,7.94,5.1,24.68,24.68,0,0,1,5.58,7.89,24,24,0,0,1,2.05,10v16.12a8.32,8.32,0,0,1-1.16,4.32,8.77,8.77,0,0,1-3.11,3.12,8.64,8.64,0,0,1-8.65,0,8.88,8.88,0,0,1-3.12-3.12,8.32,8.32,0,0,1-1.16-4.32V255.69a7.29,7.29,0,0,0-1-3.8,7.79,7.79,0,0,0-2.72-2.72,7.56,7.56,0,0,0-7.55,0,7.84,7.84,0,0,0-2.74,2.72,7.29,7.29,0,0,0-1,3.8v16.12a8.23,8.23,0,0,1-1.16,4.32,8.82,8.82,0,0,1-3.1,3.12,8.66,8.66,0,0,1-8.66,0,8.77,8.77,0,0,1-3.11-3.12,8.24,8.24,0,0,1-1.17-4.32V239.56a8.3,8.3,0,0,1,1-4,8.78,8.78,0,0,1,2.54-2.9,8.92,8.92,0,0,1,3.48-1.53,9.23,9.23,0,0,1,1.66-.15,11.14,11.14,0,0,1,2.59.38A7.6,7.6,0,0,1,116.65,233.22Z"/><path class="cls-2" d="M189.31,260a8.32,8.32,0,0,1,4.35,1.17,8.69,8.69,0,0,1,3.1,3.13,8.27,8.27,0,0,1,1.15,4.3,7.81,7.81,0,0,1-1.16,4.22,11.86,11.86,0,0,1-3.08,3.3,19.48,19.48,0,0,1-4.31,2.38,28.07,28.07,0,0,1-4.9,1.44,25.68,25.68,0,0,1-4.8.48,24.13,24.13,0,0,1-9.6-1.92,24.93,24.93,0,0,1-13.19-13.19,24.93,24.93,0,0,1,0-19.21A24.93,24.93,0,0,1,170,232.89a24,24,0,0,1,9.62-1.93,25.69,25.69,0,0,1,4.69.47,26.31,26.31,0,0,1,4.88,1.39,19.1,19.1,0,0,1,4.32,2.36,11.73,11.73,0,0,1,3.11,3.34,8.19,8.19,0,0,1,1.17,4.35,8.51,8.51,0,0,1-.64,3.24,8.67,8.67,0,0,1-1.88,2.85L181.23,263a6.93,6.93,0,0,0,1.72-.6,13.32,13.32,0,0,0,1.38-.84,11.1,11.1,0,0,1,2-1.12A7.42,7.42,0,0,1,189.31,260Zm-17.9-6,7.52-7.53a7.26,7.26,0,0,0-3.79,1,7.65,7.65,0,0,0-2.72,2.73A7.2,7.2,0,0,0,171.41,254Z"/><path d="M258.51,134.42q-3.87,49.47-10.34,57T235.52,199q-6.2,0-12.66-7.54t-10.34-57l-5.8-106.08A23.62,23.62,0,0,1,215.23,10a29.1,29.1,0,0,1,20.29-7.53A29.84,29.84,0,0,1,256,10a23.88,23.88,0,0,1,8.31,18.36ZM215.23,273.16a31.65,31.65,0,0,1,0-43.19,27.16,27.16,0,0,1,20.48-9,26.86,26.86,0,0,1,20.38,9,31.93,31.93,0,0,1,0,43.19,27,27,0,0,1-20.38,8.89A27.29,27.29,0,0,1,215.23,273.16Z"/><path class="cls-2" d="M258.51,134.42q-3.87,49.47-10.34,57T235.52,199q-6.2,0-12.66-7.54t-10.34-57l-5.8-106.08A23.62,23.62,0,0,1,215.23,10a29.1,29.1,0,0,1,20.29-7.53A29.84,29.84,0,0,1,256,10a23.88,23.88,0,0,1,8.31,18.36ZM215.23,273.16a31.65,31.65,0,0,1,0-43.19,27.16,27.16,0,0,1,20.48-9,26.86,26.86,0,0,1,20.38,9,31.93,31.93,0,0,1,0,43.19,27,27,0,0,1-20.38,8.89A27.29,27.29,0,0,1,215.23,273.16Z"/><circle class="cls-3" cx="233.69" cy="251.7" r="32.25"/><g class="cls-4"><circle class="cls-5" cx="244.55" cy="234.43" r="6.46"/><circle class="cls-5" cx="244.55" cy="22.65" r="6.46"/></g></g></g></svg>