<svg xmlns="http://www.w3.org/2000/svg" xmlns:xlink="http://www.w3.org/1999/xlink" viewBox="0 0 3000 2000"><defs><style>.cls-1{fill:none;}.cls-15,.cls-16,.cls-17,.cls-18,.cls-19,.cls-2,.cls-20,.cls-21,.cls-22,.cls-23,.cls-24,.cls-25,.cls-26,.cls-27,.cls-28,.cls-29,.cls-30,.cls-31,.cls-32,.cls-33,.cls-34,.cls-35,.cls-36,.cls-37,.cls-38,.cls-39,.cls-40,.cls-41,.cls-42,.cls-43,.cls-44,.cls-45,.cls-46,.cls-47,.cls-48,.cls-49,.cls-50,.cls-51,.cls-52,.cls-53,.cls-54,.cls-55{isolation:isolate;}.cls-3{clip-path:url(#clip-path);}.cls-4{fill:url(#Degradado_sin_nombre_19);}.cls-5{fill:url(#Degradado_sin_nombre_2);}.cls-10,.cls-11,.cls-12,.cls-15,.cls-16,.cls-17,.cls-18,.cls-19,.cls-20,.cls-21,.cls-22,.cls-23,.cls-24,.cls-25,.cls-26,.cls-27,.cls-28,.cls-29,.cls-30,.cls-31,.cls-32,.cls-33,.cls-34,.cls-35,.cls-36,.cls-37,.cls-38,.cls-39,.cls-40,.cls-41,.cls-42,.cls-43,.cls-44,.cls-45,.cls-46,.cls-47,.cls-48,.cls-49,.cls-50,.cls-51,.cls-52,.cls-53,.cls-54,.cls-55,.cls-56,.cls-6,.cls-7,.cls-8,.cls-9{fill-rule:evenodd;}.cls-6{fill:url(#Degradado_sin_nombre_9);}.cls-7{fill:#191021;}.cls-8{fill:url(#Degradado_sin_nombre_13);}.cls-9{fill:url(#Degradado_sin_nombre_15);}.cls-10{fill:url(#Degradado_sin_nombre_11);}.cls-11{fill:url(#Degradado_sin_nombre_18);}.cls-12{fill:url(#Degradado_sin_nombre_17);}.cls-13,.cls-14{mix-blend-mode:screen;}.cls-13{fill:url(#radial-gradient);}.cls-14{fill:url(#linear-gradient);}.cls-15,.cls-16,.cls-17,.cls-18,.cls-19,.cls-20,.cls-21,.cls-22,.cls-23,.cls-24,.cls-25,.cls-26,.cls-27,.cls-28,.cls-29,.cls-30,.cls-31,.cls-32,.cls-33,.cls-34,.cls-35,.cls-36,.cls-37,.cls-38,.cls-39,.cls-40,.cls-41,.cls-42,.cls-43,.cls-44,.cls-45,.cls-46,.cls-47,.cls-48,.cls-49,.cls-50,.cls-51,.cls-52,.cls-53,.cls-54{opacity:0.23;}.cls-15{fill:url(#linear-gradient-2);}.cls-16{fill:url(#linear-gradient-3);}.cls-17{fill:url(#linear-gradient-4);}.cls-18{fill:url(#linear-gradient-5);}.cls-19{fill:url(#linear-gradient-6);}.cls-20{fill:url(#linear-gradient-7);}.cls-21{fill:url(#linear-gradient-8);}.cls-22{fill:url(#linear-gradient-9);}.cls-23{fill:url(#linear-gradient-10);}.cls-24{fill:url(#linear-gradient-11);}.cls-25{fill:url(#linear-gradient-12);}.cls-26{fill:url(#linear-gradient-13);}.cls-27{fill:url(#linear-gradient-14);}.cls-28{fill:url(#linear-gradient-15);}.cls-29{fill:url(#linear-gradient-16);}.cls-30{fill:url(#linear-gradient-17);}.cls-31{fill:url(#linear-gradient-18);}.cls-32{fill:url(#linear-gradient-19);}.cls-33{fill:url(#linear-gradient-20);}.cls-34{fill:url(#linear-gradient-21);}.cls-35{fill:url(#linear-gradient-22);}.cls-36{fill:url(#linear-gradient-23);}.cls-37{fill:url(#linear-gradient-24);}.cls-38{fill:url(#linear-gradient-25);}.cls-39{fill:url(#linear-gradient-26);}.cls-40{fill:url(#linear-gradient-27);}.cls-41{fill:url(#linear-gradient-28);}.cls-42{fill:url(#linear-gradient-29);}.cls-43{fill:url(#linear-gradient-30);}.cls-44{fill:url(#linear-gradient-31);}.cls-45{fill:url(#linear-gradient-32);}.cls-46{fill:url(#linear-gradient-33);}.cls-47{fill:url(#linear-gradient-34);}.cls-48{fill:url(#linear-gradient-35);}.cls-49{fill:url(#linear-gradient-36);}.cls-50{fill:url(#linear-gradient-37);}.cls-51{fill:url(#linear-gradient-38);}.cls-52{fill:url(#linear-gradient-39);}.cls-53{fill:url(#linear-gradient-40);}.cls-54{fill:url(#linear-gradient-41);}.cls-55,.cls-56{fill:#fff;}.cls-55{opacity:0.13;}</style><clipPath id="clip-path"><rect class="cls-1" width="3000" height="2000"/></clipPath><linearGradient id="Degradado_sin_nombre_19" x1="1244.04" y1="1255.76" x2="1244.04" y2="1256.26" gradientTransform="matrix(6000, 0, 0, -2828, -7462756, 3552712)" gradientUnits="userSpaceOnUse"><stop offset="0" stop-color="#fff"/><stop offset="1" stop-color="#ed7284"/></linearGradient><linearGradient id="Degradado_sin_nombre_2" x1="1244.04" y1="1252.51" x2="1244.04" y2="1253.01" gradientTransform="translate(-7462756 -1082003) scale(6000 865)" gradientUnits="userSpaceOnUse"><stop offset="0" stop-color="#fff6e2"/><stop offset="1" stop-color="#f79ca2"/></linearGradient><linearGradient id="Degradado_sin_nombre_9" x1="1526.02" y1="2395.33" x2="1528.26" y2="1513.32" gradientUnits="userSpaceOnUse"><stop offset="0.45" stop-color="#50173a"/><stop offset="0.59" stop-color="#191021"/></linearGradient><linearGradient id="Degradado_sin_nombre_13" x1="1244.81" y1="1261.88" x2="1244.81" y2="1261.39" gradientTransform="translate(6144061.5 427762.31) rotate(180) scale(4935.5 338)" gradientUnits="userSpaceOnUse"><stop offset="0.29" stop-color="#bc4f71"/><stop offset="1" stop-color="#fbfcff"/></linearGradient><linearGradient id="Degradado_sin_nombre_15" x1="1245.3" y1="1264.83" x2="1245.3" y2="1264.34" gradientTransform="translate(4165697 290967.31) rotate(180) scale(3344 229)" gradientUnits="userSpaceOnUse"><stop offset="0.18" stop-color="#bd5172"/><stop offset="1" stop-color="#fbfcff"/></linearGradient><linearGradient id="Degradado_sin_nombre_11" x1="1245.34" y1="1259.76" x2="1245.34" y2="1259.26" gradientTransform="translate(6149461.51 598161) rotate(180) scale(4935.69 474)" gradientUnits="userSpaceOnUse"><stop offset="0" stop-color="#bd5273"/><stop offset="1" stop-color="#fbfcff" stop-opacity="0"/></linearGradient><linearGradient id="Degradado_sin_nombre_18" x1="1244.05" y1="1259.87" x2="1244.05" y2="1259.38" gradientTransform="matrix(4935.69, 0, 0, -474, -6139265.82, 598273)" gradientUnits="userSpaceOnUse"><stop offset="0.14" stop-color="#bb4b6d"/><stop offset="1" stop-color="#fbfcff" stop-opacity="0"/></linearGradient><linearGradient id="Degradado_sin_nombre_17" x1="1245.58" y1="1264.92" x2="1245.58" y2="1264.43" gradientTransform="translate(4167571 290967.31) rotate(180) scale(3344 229)" gradientUnits="userSpaceOnUse"><stop offset="0.09" stop-color="#bd5273"/><stop offset="1" stop-color="#fbfcff"/></linearGradient><radialGradient id="radial-gradient" cx="1243.24" cy="1256.27" r="0.24" gradientTransform="matrix(2169, 0, 0, -2169, -2695077, 2725329)" gradientUnits="userSpaceOnUse"><stop offset="0" stop-color="#fff"/><stop offset="1"/></radialGradient><linearGradient id="linear-gradient" x1="1242.4" y1="1257.03" x2="1242.4" y2="1256.53" gradientTransform="matrix(1307, 0, 0, -1307, -1622318, 1643088)" gradientUnits="userSpaceOnUse"><stop offset="0" stop-color="#fff"/><stop offset="1" stop-color="#fff" stop-opacity="0"/></linearGradient><linearGradient id="linear-gradient-2" x1="1254.37" y1="1351.25" x2="1253.88" y2="1351.25" gradientTransform="translate(314698 32537) rotate(180) scale(250 23)" xlink:href="#linear-gradient"/><linearGradient id="linear-gradient-3" x1="1254.62" y1="1352.05" x2="1254.13" y2="1352.05" gradientTransform="translate(314822 32574) rotate(180) scale(250 23)" xlink:href="#linear-gradient"/><linearGradient id="linear-gradient-4" x1="1254.87" y1="1351.27" x2="1254.38" y2="1351.27" gradientTransform="translate(314947 32538) rotate(180) scale(250 23)" xlink:href="#linear-gradient"/><linearGradient id="linear-gradient-5" x1="1255.41" y1="1351.36" x2="1254.92" y2="1351.36" gradientTransform="translate(315217 32542) rotate(180) scale(250 23)" xlink:href="#linear-gradient"/><linearGradient id="linear-gradient-6" x1="1255.66" y1="1352.16" x2="1255.17" y2="1352.16" gradientTransform="translate(315342 32579) rotate(180) scale(250 23)" xlink:href="#linear-gradient"/><linearGradient id="linear-gradient-7" x1="1255.91" y1="1351.38" x2="1255.42" y2="1351.38" gradientTransform="translate(315468 32543) rotate(180) scale(250 23)" xlink:href="#linear-gradient"/><linearGradient id="linear-gradient-8" x1="1256.37" y1="1351.38" x2="1255.88" y2="1351.38" gradientTransform="translate(315697 32543) rotate(180) scale(250 23)" xlink:href="#linear-gradient"/><linearGradient id="linear-gradient-9" x1="1256.62" y1="1352.21" x2="1256.13" y2="1352.2" gradientTransform="translate(315823 32581) rotate(180) scale(250 23)" xlink:href="#linear-gradient"/><linearGradient id="linear-gradient-10" x1="1256.16" y1="1353.01" x2="1255.67" y2="1353.01" gradientTransform="translate(315593 32618) rotate(180) scale(250 23)" xlink:href="#linear-gradient"/><linearGradient id="linear-gradient-11" x1="1255.13" y1="1352.77" x2="1254.64" y2="1352.77" gradientTransform="translate(315078 32607) rotate(180) scale(250 23)" xlink:href="#linear-gradient"/><linearGradient id="linear-gradient-12" x1="1255.69" y1="1353.49" x2="1255.2" y2="1353.49" gradientTransform="translate(315357 32640) rotate(180) scale(250 23)" xlink:href="#linear-gradient"/><linearGradient id="linear-gradient-13" x1="1255.22" y1="1354.32" x2="1254.73" y2="1354.31" gradientTransform="translate(315123 32678) rotate(180) scale(250 23)" xlink:href="#linear-gradient"/><linearGradient id="linear-gradient-14" x1="1255.81" y1="1355.1" x2="1255.32" y2="1355.1" gradientTransform="translate(315418 32714) rotate(180) scale(250 23)" xlink:href="#linear-gradient"/><linearGradient id="linear-gradient-15" x1="1256.18" y1="1354.58" x2="1255.7" y2="1354.57" gradientTransform="translate(315605 32690) rotate(180) scale(250 23)" xlink:href="#linear-gradient"/><linearGradient id="linear-gradient-16" x1="1255.24" y1="1355.82" x2="1254.76" y2="1355.81" gradientTransform="translate(315134 32747) rotate(180) scale(250 23)" xlink:href="#linear-gradient"/><linearGradient id="linear-gradient-17" x1="1254.12" y1="1356.4" x2="1253.63" y2="1356.4" gradientTransform="translate(314573 32774) rotate(180) scale(250 23)" xlink:href="#linear-gradient"/><linearGradient id="linear-gradient-18" x1="1252.82" y1="1352.4" x2="1252.33" y2="1352.4" gradientTransform="translate(313922.85 32590) rotate(180) scale(250 23)" xlink:href="#linear-gradient"/><linearGradient id="linear-gradient-19" x1="1251.9" y1="1351.97" x2="1251.41" y2="1351.97" gradientTransform="translate(313462 32570) rotate(180) scale(250 23)" xlink:href="#linear-gradient"/><linearGradient id="linear-gradient-20" x1="1251.81" y1="1356.4" x2="1251.33" y2="1356.4" gradientTransform="translate(313421 32774) rotate(180) scale(250 23)" xlink:href="#linear-gradient"/><linearGradient id="linear-gradient-21" x1="1252.96" y1="1356.4" x2="1252.47" y2="1356.4" gradientTransform="translate(313993 32774) rotate(180) scale(250 23)" xlink:href="#linear-gradient"/><linearGradient id="linear-gradient-22" x1="1251.86" y1="1360.12" x2="1251.38" y2="1360.12" gradientTransform="translate(313445 32945) rotate(180) scale(250 23)" xlink:href="#linear-gradient"/><linearGradient id="linear-gradient-23" x1="1253.09" y1="1360.51" x2="1252.61" y2="1360.51" gradientTransform="translate(314059 32963) rotate(180) scale(250 23)" xlink:href="#linear-gradient"/><linearGradient id="linear-gradient-24" x1="1254.55" y1="1361.23" x2="1254.06" y2="1361.23" gradientTransform="translate(314788 32996) rotate(180) scale(250 23)" xlink:href="#linear-gradient"/><linearGradient id="linear-gradient-25" x1="1255.96" y1="1358.6" x2="1255.48" y2="1358.6" gradientTransform="translate(315494 32875) rotate(180) scale(250 23)" xlink:href="#linear-gradient"/><linearGradient id="linear-gradient-26" x1="1258.07" y1="1358.73" x2="1257.58" y2="1358.73" gradientTransform="translate(316547.39 32881) rotate(180) scale(250 23)" xlink:href="#linear-gradient"/><linearGradient id="linear-gradient-27" x1="1257.33" y1="1354.66" x2="1256.85" y2="1354.66" gradientTransform="translate(316178.7 32694) rotate(180) scale(250 23)" xlink:href="#linear-gradient"/><linearGradient id="linear-gradient-28" x1="1257.54" y1="1351.86" x2="1257.05" y2="1351.86" gradientTransform="translate(316281.39 32565) rotate(180) scale(250 23)" xlink:href="#linear-gradient"/><linearGradient id="linear-gradient-29" x1="1258.28" y1="1351.55" x2="1257.8" y2="1351.55" gradientTransform="translate(316654.39 32551) rotate(180) scale(250 23)" xlink:href="#linear-gradient"/><linearGradient id="linear-gradient-30" x1="1259.09" y1="1351.69" x2="1258.6" y2="1351.68" gradientTransform="translate(317057.39 32557) rotate(180) scale(250 23)" xlink:href="#linear-gradient"/><linearGradient id="linear-gradient-31" x1="1259.67" y1="1355.32" x2="1259.18" y2="1355.31" gradientTransform="translate(317347.39 32724) rotate(180) scale(250 23)" xlink:href="#linear-gradient"/><linearGradient id="linear-gradient-32" x1="1258.51" y1="1355.49" x2="1258.03" y2="1355.49" gradientTransform="translate(316769.39 32732) rotate(180) scale(250 23)" xlink:href="#linear-gradient"/><linearGradient id="linear-gradient-33" x1="1259.26" y1="1359.01" x2="1258.77" y2="1359.01" gradientTransform="translate(317142.39 32894) rotate(180) scale(250 23)" xlink:href="#linear-gradient"/><linearGradient id="linear-gradient-34" x1="1259.53" y1="1361.69" x2="1259.04" y2="1361.68" gradientTransform="translate(317276.39 33017) rotate(180) scale(250 23)" xlink:href="#linear-gradient"/><linearGradient id="linear-gradient-35" x1="1258.17" y1="1361.82" x2="1257.68" y2="1361.81" gradientTransform="translate(316596.39 33023) rotate(180) scale(250 23)" xlink:href="#linear-gradient"/><linearGradient id="linear-gradient-36" x1="1257.11" y1="1358.92" x2="1256.63" y2="1358.92" gradientTransform="translate(316070.7 32890) rotate(180) scale(250 23)" xlink:href="#linear-gradient"/><linearGradient id="linear-gradient-37" x1="1257.33" y1="1361.79" x2="1256.85" y2="1361.79" gradientTransform="translate(316178.7 33022) rotate(180) scale(250 23)" xlink:href="#linear-gradient"/><linearGradient id="linear-gradient-38" x1="1254.66" y1="1354.29" x2="1254.17" y2="1354.29" gradientTransform="translate(314843 32677) rotate(180) scale(250 23)" xlink:href="#linear-gradient"/><linearGradient id="linear-gradient-39" x1="1254.66" y1="1353.21" x2="1254.17" y2="1353.2" gradientTransform="translate(314843 32627) rotate(180) scale(250 23)" xlink:href="#linear-gradient"/><linearGradient id="linear-gradient-40" x1="1256.66" y1="1353.9" x2="1256.17" y2="1353.9" gradientTransform="translate(315843 32659) rotate(180) scale(250 23)" xlink:href="#linear-gradient"/><linearGradient id="linear-gradient-41" x1="1256.86" y1="1351.4" x2="1256.38" y2="1351.4" gradientTransform="translate(315946 32544) rotate(180) scale(250 23)" xlink:href="#linear-gradient"/></defs><g class="cls-2"><g id="Layer_1" data-name="Layer 1"><g class="cls-3"><g id="File054"><rect id="Rectangle" class="cls-4" width="3000" height="1414"/><rect id="Rectangle-Copy" class="cls-5" y="1414" width="3000" height="432.5"/><path id="Rectangle-2" data-name="Rectangle" class="cls-6" d="M0,1792.24q297.67,29.31,411,29c91.26-.24,167.2-26.75,227.73-29,209.19-7.81,416.57,48.68,601.13,47.68,486.51-2.61,875.91-47.68,1182.7-47.68q804.58,0,585.58,68.5V2000H0Z"/><g id="Group"><path id="Path-2" class="cls-7" d="M1019.48,1816.74q10.37-29.07,25-16.42c14.58,12.66-8.42,5.8-4.21,19.91s8.92,0,24.18,0-8.31-19.91,0-19.91,15.09-2.3,15.09,4.45v15.46c0,4.22-3.65,14.11-9.37,14.11s0,4.16,0,4.16l21-4.16v-14.11s-12-3.49,0-3.49,12.22,4.39,12.22,9.28v12.48s.12-4.1-6,0q-6.18,4.11-6.17,8.49H995.3l-25-16.42s-18.73-13.1,0-8.82,19.24,20.74,25,4.27,2.53-16.81,4.15-21.25a38.41,38.41,0,0,1,4.66-8.77q3.71,1.85,3.7,8.77a20.68,20.68,0,0,0,4.15,12v4.78Z"/><path id="Path-2-Copy-6" class="cls-7" d="M1151.77,1816.74q10.37-29.07,25-16.42c14.58,12.66-8.42,5.8-4.21,19.91s8.92,0,24.17,0-8.3-19.91,0-19.91,15.09-2.3,15.09,4.45v15.46c0,4.22-3.64,14.11-9.36,14.11s0,4.16,0,4.16l21-4.16v-14.11s-12-3.49,0-3.49,12.23,4.39,12.23,9.28v12.48s.11-4.1-6.06,0q-6.16,4.11-6.17,8.49h-95.8l-25-16.42s-18.73-13.1,0-8.82,19.24,20.74,25,4.27,2.52-16.81,4.15-21.25a38,38,0,0,1,4.66-8.77q3.69,1.85,3.7,8.77a20.68,20.68,0,0,0,4.15,12v4.78Z"/><path id="Path-2-Copy-7" class="cls-7" d="M1293.14,1817.25q10.38-29.07,25-16.42c14.59,12.65-8.41,5.79-4.2,19.9s8.91,0,24.17,0-8.3-19.9,0-19.9,15.09-2.31,15.09,4.44v15.46c0,4.22-3.65,14.12-9.37,14.12s0,4.16,0,4.16l21-4.16v-14.12s-12-3.48,0-3.48,12.23,4.38,12.23,9.27V1839s.11-4.11-6.06,0q-6.17,4.1-6.17,8.49H1269l-25-16.42s-18.74-13.1,0-8.83,19.24,20.75,25,4.27,2.52-16.81,4.15-21.25a38.18,38.18,0,0,1,4.65-8.77q3.7,1.86,3.7,8.77a20.66,20.66,0,0,0,4.16,12V1822Z"/><path id="Path-2-Copy-8" class="cls-7" d="M390.35,1816.74q10.38-29.07,25-16.42c14.58,12.66-8.41,5.8-4.21,19.91s8.92,0,24.18,0-8.3-19.91,0-19.91,15.09-2.3,15.09,4.45v15.46c0,4.22-3.65,14.11-9.37,14.11s0,4.16,0,4.16l21-4.16v-14.11s-12-3.49,0-3.49,12.23,4.39,12.23,9.28v12.48s.11-4.1-6.06,0Q462,1842.61,462,1847H366.17l-25-16.42s-18.74-13.1,0-8.82,19.24,20.74,25,4.27,2.53-16.81,4.15-21.25A38.41,38.41,0,0,1,375,1796q3.7,1.85,3.7,8.77a20.68,20.68,0,0,0,4.15,12v4.78Z"/><path id="Path-2-Copy" class="cls-7" d="M938.69,1791.5q10.38-29.07,25-16.42c14.58,12.65-8.41,5.79-4.21,19.9s8.92,0,24.18,0-8.3-19.9,0-19.9,15.09-2.31,15.09,4.44V1795c0,4.22-3.65,14.12-9.37,14.12s0,4.16,0,4.16l21-4.16V1795s-12-3.48,0-3.48,12.23,4.38,12.23,9.27v12.49s.11-4.11-6.06,0q-6.16,4.1-6.17,8.49H914.51l-25-16.42s-18.74-13.1,0-8.83,19.24,20.75,25,4.27,2.53-16.81,4.16-21.25a38.18,38.18,0,0,1,4.65-8.77q3.7,1.86,3.7,8.77a20.69,20.69,0,0,0,4.15,12v4.78Z"/><path id="Path-2-Copy-3" class="cls-7" d="M806.4,1791.5q10.38-29.07,25-16.42c14.59,12.65-8.41,5.79-4.2,19.9s8.91,0,24.17,0-8.3-19.9,0-19.9,15.09-2.31,15.09,4.44V1795c0,4.22-3.65,14.12-9.37,14.12s0,4.16,0,4.16l21-4.16V1795s-12-3.48,0-3.48,12.23,4.38,12.23,9.27v12.49s.11-4.11-6.06,0q-6.16,4.1-6.17,8.49h-95.8l-25-16.42s-18.74-13.1,0-8.83,19.24,20.75,25,4.27,2.52-16.81,4.15-21.25a38.18,38.18,0,0,1,4.65-8.77q3.71,1.86,3.7,8.77a20.66,20.66,0,0,0,4.16,12v4.78Z"/><path id="Path-2-Copy-2" class="cls-7" d="M725.61,1766.25q10.38-29.07,25-16.42c14.58,12.65-8.42,5.79-4.21,19.91s8.92,0,24.17,0-8.3-19.91,0-19.91,15.09-2.3,15.09,4.44v15.47c0,4.21-3.64,14.11-9.36,14.11s0,4.16,0,4.16l21-4.16v-14.11s-12-3.49,0-3.49,12.23,4.39,12.23,9.28V1788s.11-4.1-6.06,0q-6.17,4.11-6.17,8.49h-95.8l-25-16.42s-18.73-13.1,0-8.83,19.24,20.75,25,4.28,2.52-16.81,4.15-21.26a38.23,38.23,0,0,1,4.66-8.77q3.69,1.86,3.7,8.77a20.69,20.69,0,0,0,4.15,12V1771Z"/><path id="Path-2-Copy-5" class="cls-7" d="M492.53,1800.34q.89-30.85,18.67-23.32c17.77,7.52-6.22,8.1,2.14,20.22s8.49-2.75,23-7.47-14.05-16.36-6.15-18.93,13.63-6.85,15.72-.43l4.78,14.7c1.3,4,.89,14.55-4.55,16.32s1.29,4,1.29,4L566.09,1795l-4.36-13.43s-12.49.4-1.08-3.31,13,.39,14.5,5l3.86,11.87s-1.17-3.93-5.76,1.88q-4.61,5.8-3.25,10l-91.12,29.6L450,1828.7s-21.87-6.67-2.73-8.4,24.71,13.79,25.11-3.66-2.79-16.77-2.62-21.5a38.43,38.43,0,0,1,1.72-9.78q4.1.62,6.23,7.2a20.7,20.7,0,0,0,7.65,10.11l1.48,4.54Z"/><path id="Path-2-Copy-4" class="cls-7" d="M584.24,1778.87q10.38-29.07,25-16.41c14.58,12.65-8.41,5.79-4.21,19.9s8.92,0,24.18,0-8.3-19.9,0-19.9,15.09-2.31,15.09,4.44v15.46c0,4.22-3.65,14.11-9.37,14.11s0,4.16,0,4.16l21-4.16v-14.11s-12-3.49,0-3.49,12.23,4.39,12.23,9.28v12.48s.11-4.1-6.06,0q-6.18,4.11-6.17,8.49H560.06l-25-16.41s-18.74-13.11,0-8.83,19.24,20.74,25,4.27,2.53-16.81,4.15-21.25a38.41,38.41,0,0,1,4.66-8.77q3.71,1.84,3.7,8.77a20.68,20.68,0,0,0,4.15,12v4.78Z"/></g><g id="Group-Copy-4"><path id="Path-2-2" data-name="Path-2" class="cls-7" d="M290.88,1816.74q10.38-29.07,25-16.42c14.59,12.66-8.41,5.8-4.2,19.91s8.91,0,24.17,0-8.3-19.91,0-19.91,15.09-2.3,15.09,4.45v15.46c0,4.22-3.65,14.11-9.37,14.11s0,4.16,0,4.16l21-4.16v-14.11s-12-3.49,0-3.49,12.23,4.39,12.23,9.28v12.48s.11-4.1-6.06,0q-6.17,4.11-6.17,8.49h-95.8l-25-16.42s-18.74-13.1,0-8.82,19.24,20.74,25,4.27,2.52-16.81,4.15-21.25a38,38,0,0,1,4.65-8.77q3.71,1.85,3.7,8.77a20.68,20.68,0,0,0,4.15,12v4.78Z"/><path id="Path-2-Copy-2-2" data-name="Path-2-Copy" class="cls-7" d="M210.09,1791.5q10.38-29.07,25-16.42c14.58,12.65-8.42,5.79-4.21,19.9s8.92,0,24.17,0-8.3-19.9,0-19.9,15.09-2.31,15.09,4.44V1795c0,4.22-3.64,14.12-9.36,14.12s0,4.16,0,4.16l21-4.16V1795s-12-3.48,0-3.48,12.23,4.38,12.23,9.27v12.49s.11-4.11-6.06,0q-6.17,4.1-6.17,8.49h-95.8l-25-16.42s-18.73-13.1,0-8.83,19.24,20.75,25,4.27,2.52-16.81,4.15-21.25a38.23,38.23,0,0,1,4.66-8.77q3.69,1.86,3.7,8.77a20.69,20.69,0,0,0,4.15,12v4.78Z"/><path id="Path-2-Copy-3-2" data-name="Path-2-Copy-3" class="cls-7" d="M77.81,1791.5q10.36-29.07,25-16.42c14.58,12.65-8.42,5.79-4.21,19.9s8.92,0,24.18,0-8.31-19.9,0-19.9,15.08-2.31,15.08,4.44V1795c0,4.22-3.64,14.12-9.36,14.12s0,4.16,0,4.16l21-4.16V1795s-12-3.48,0-3.48,12.22,4.38,12.22,9.27v12.49s.12-4.11-6,0q-6.18,4.1-6.17,8.49H53.63l-25-16.42s-18.73-13.1,0-8.83,19.24,20.75,25,4.27,2.52-16.81,4.15-21.25a38.62,38.62,0,0,1,4.66-8.77q3.69,1.86,3.7,8.77a20.69,20.69,0,0,0,4.15,12v4.78Z"/><path id="Path-2-Copy-2-3" data-name="Path-2-Copy-2" class="cls-7" d="M-3,1766.25q10.38-29.07,25-16.42c14.58,12.65-8.41,5.79-4.21,19.91s8.92,0,24.18,0-8.3-19.91,0-19.91,15.09-2.3,15.09,4.44v15.47c0,4.21-3.65,14.11-9.37,14.11s0,4.16,0,4.16l21-4.16v-14.11s-12-3.49,0-3.49,12.23,4.39,12.23,9.28V1788s.11-4.1-6.06,0q-6.16,4.11-6.17,8.49H-27.16l-25-16.42s-18.74-13.1,0-8.83,19.24,20.75,25,4.28,2.53-16.81,4.15-21.26a38.62,38.62,0,0,1,4.66-8.77q3.71,1.86,3.7,8.77a20.69,20.69,0,0,0,4.15,12V1771Z"/></g><g id="Group-Copy"><path id="Path-2-3" data-name="Path-2" class="cls-7" d="M2276.46,1840.55q10.27-28.8,24.72-16.26c14.44,12.52-8.34,5.73-4.17,19.71s8.83,0,23.94,0-8.22-19.71,0-19.71,14.94-2.29,14.94,4.4V1844c0,4.17-3.61,14-9.27,14s0,4.12,0,4.12l20.77-4.12v-14s-11.89-3.45,0-3.45,12.11,4.34,12.11,9.18v12.36s.11-4.06-6,0q-6.11,4.07-6.11,8.41h-94.87l-24.77-16.26s-18.56-13,0-8.74,19.05,20.55,24.77,4.23,2.5-16.65,4.11-21a37.68,37.68,0,0,1,4.61-8.69q3.66,1.83,3.67,8.69a20.52,20.52,0,0,0,4.11,11.86v4.73Z"/><path id="Path-2-Copy-3-3" data-name="Path-2-Copy" class="cls-7" d="M2196.46,1815.55q10.27-28.8,24.72-16.26c14.44,12.52-8.34,5.73-4.17,19.71s8.83,0,23.94,0-8.22-19.71,0-19.71,14.94-2.29,14.94,4.4V1819c0,4.17-3.61,14-9.27,14s0,4.12,0,4.12l20.77-4.12v-14s-11.89-3.45,0-3.45,12.11,4.34,12.11,9.18v12.36s.11-4.06-6,0q-6.11,4.07-6.11,8.41h-94.87l-24.77-16.26s-18.56-13,0-8.74,19.05,20.55,24.77,4.23,2.5-16.65,4.11-21a37.68,37.68,0,0,1,4.61-8.69q3.66,1.83,3.67,8.69a20.52,20.52,0,0,0,4.11,11.86v4.73Z"/><path id="Path-2-Copy-3-4" data-name="Path-2-Copy-3" class="cls-7" d="M2065.46,1815.55q10.27-28.8,24.72-16.26c14.44,12.52-8.34,5.73-4.17,19.71s8.83,0,23.94,0-8.22-19.71,0-19.71,14.94-2.29,14.94,4.4V1819c0,4.17-3.61,14-9.27,14s0,4.12,0,4.12l20.77-4.12v-14s-11.89-3.45,0-3.45,12.11,4.34,12.11,9.18v12.36s.11-4.06-6,0q-6.11,4.07-6.11,8.41h-94.87l-24.77-16.26s-18.56-13,0-8.74,19,20.55,24.77,4.23,2.5-16.65,4.11-21a37.68,37.68,0,0,1,4.61-8.69q3.66,1.83,3.67,8.69a20.52,20.52,0,0,0,4.11,11.86v4.73Z"/><path id="Path-2-Copy-2-4" data-name="Path-2-Copy-2" class="cls-7" d="M1985.46,1790.55q10.27-28.8,24.72-16.26c14.44,12.52-8.34,5.73-4.17,19.71s8.83,0,23.94,0-8.22-19.71,0-19.71,14.94-2.29,14.94,4.4V1794c0,4.17-3.61,14-9.27,14s0,4.12,0,4.12l20.77-4.12v-14s-11.89-3.45,0-3.45,12.11,4.34,12.11,9.18v12.36s.11-4.06-6,0q-6.11,4.07-6.11,8.41h-94.87l-24.77-16.26s-18.56-13,0-8.74,19,20.55,24.77,4.23,2.5-16.65,4.11-21a37.68,37.68,0,0,1,4.61-8.69q3.66,1.83,3.67,8.69a20.52,20.52,0,0,0,4.11,11.86v4.73Z"/><path id="Path-2-Copy-5-2" data-name="Path-2-Copy-5" class="cls-7" d="M1754.64,1824.31q.88-30.55,18.49-23.11c17.6,7.46-6.15,8,2.13,20s8.4-2.73,22.76-7.4-13.9-16.21-6.09-18.75,13.51-6.78,15.57-.43l4.74,14.56c1.29,4,.88,14.41-4.51,16.16s1.27,3.92,1.27,3.92l18.49-10.34-4.32-13.29s-12.37.39-1.07-3.28,12.86.38,14.36,5l3.82,11.76s-1.15-3.9-5.71,1.85q-4.54,5.76-3.21,9.88l-90.23,29.32-28.58-7.8s-21.66-6.61-2.7-8.32,24.46,13.65,24.86-3.63-2.76-16.6-2.59-21.29a37.57,37.57,0,0,1,1.7-9.68q4,.62,6.17,7.13a20.53,20.53,0,0,0,7.57,10l1.47,4.5Z"/><path id="Path-2-Copy-4-2" data-name="Path-2-Copy-4" class="cls-7" d="M1845.46,1803.05q10.27-28.8,24.72-16.26c14.44,12.52-8.34,5.73-4.17,19.71s8.83,0,23.94,0-8.22-19.71,0-19.71,14.94-2.29,14.94,4.4v15.31c0,4.17-3.61,14-9.27,14s0,4.12,0,4.12l20.77-4.12v-14s-11.89-3.45,0-3.45,12.11,4.34,12.11,9.18v12.36s.11-4.06-6,0q-6.11,4.07-6.11,8.41h-94.87l-24.77-16.26s-18.56-13,0-8.74,19,20.55,24.77,4.23,2.5-16.65,4.11-21a37.68,37.68,0,0,1,4.61-8.69q3.66,1.83,3.67,8.69a20.52,20.52,0,0,0,4.11,11.86v4.73Z"/></g><g id="Group-Copy-2"><path id="Path-2-4" data-name="Path-2" class="cls-7" d="M1894,1862.05q10.27-28.8,24.72-16.26c14.44,12.52-8.34,5.73-4.17,19.71s8.83,0,23.94,0-8.22-19.71,0-19.71,14.94-2.29,14.94,4.4v15.31c0,4.17-3.61,14-9.27,14s0,4.12,0,4.12l20.77-4.12v-14s-11.89-3.45,0-3.45,12.11,4.34,12.11,9.18v12.36s.11-4.06-6,0q-6.11,4.07-6.11,8.41H1870l-24.77-16.26s-18.56-13,0-8.74,19,20.55,24.77,4.23,2.5-16.65,4.11-21a37.68,37.68,0,0,1,4.61-8.69q3.66,1.83,3.67,8.69a20.52,20.52,0,0,0,4.11,11.86v4.73Z"/><path id="Path-2-Copy-4-3" data-name="Path-2-Copy" class="cls-7" d="M1814,1837.05q10.27-28.8,24.72-16.26c14.44,12.52-8.34,5.73-4.17,19.71s8.83,0,23.94,0-8.22-19.71,0-19.71,14.94-2.29,14.94,4.4v15.31c0,4.17-3.61,14-9.27,14s0,4.12,0,4.12l20.77-4.12v-14s-11.89-3.45,0-3.45,12.11,4.34,12.11,9.18v12.36s.11-4.06-6,0q-6.11,4.07-6.11,8.41H1790l-24.77-16.26s-18.56-13,0-8.74,19,20.55,24.77,4.23,2.5-16.65,4.11-21a37.68,37.68,0,0,1,4.61-8.69q3.66,1.83,3.67,8.69a20.52,20.52,0,0,0,4.11,11.86v4.73Z"/><path id="Path-2-Copy-3-5" data-name="Path-2-Copy-3" class="cls-7" d="M1683,1837.05q10.27-28.8,24.72-16.26c14.44,12.52-8.34,5.73-4.17,19.71s8.83,0,23.94,0-8.22-19.71,0-19.71,14.94-2.29,14.94,4.4v15.31c0,4.17-3.61,14-9.27,14s0,4.12,0,4.12l20.77-4.12v-14s-11.89-3.45,0-3.45,12.11,4.34,12.11,9.18v12.36s.11-4.06-6,0q-6.11,4.07-6.11,8.41H1659l-24.77-16.26s-18.56-13,0-8.74,19,20.55,24.77,4.23,2.5-16.65,4.11-21a37.68,37.68,0,0,1,4.61-8.69q3.66,1.83,3.67,8.69a20.52,20.52,0,0,0,4.11,11.86v4.73Z"/><path id="Path-2-Copy-2-5" data-name="Path-2-Copy-2" class="cls-7" d="M1603,1812.05q10.27-28.8,24.72-16.26c14.44,12.52-8.34,5.73-4.17,19.71s8.83,0,23.94,0-8.22-19.71,0-19.71,14.94-2.29,14.94,4.4v15.31c0,4.17-3.61,14-9.27,14s0,4.12,0,4.12l20.77-4.12v-14s-11.89-3.45,0-3.45,12.11,4.34,12.11,9.18v12.36s.11-4.06-6,0q-6.11,4.07-6.11,8.41H1579l-24.77-16.26s-18.56-13,0-8.74,19,20.55,24.77,4.23,2.5-16.65,4.11-21a37.68,37.68,0,0,1,4.61-8.69q3.66,1.83,3.67,8.69a20.52,20.52,0,0,0,4.11,11.86v4.73Z"/><path id="Path-2-Copy-5-3" data-name="Path-2-Copy-5" class="cls-7" d="M1372.14,1845.81q.88-30.55,18.49-23.11c17.6,7.46-6.15,8,2.13,20s8.4-2.73,22.76-7.4-13.9-16.21-6.09-18.75,13.51-6.78,15.57-.43l4.74,14.56c1.29,4,.88,14.41-4.51,16.16s1.27,3.92,1.27,3.92l18.49-10.34-4.32-13.29s-12.37.39-1.07-3.28,12.86.38,14.36,5l3.82,11.76s-1.15-3.9-5.71,1.85q-4.54,5.76-3.21,9.88l-90.23,29.32-28.58-7.8s-21.66-6.61-2.7-8.32,24.46,13.65,24.86-3.63-2.76-16.6-2.59-21.29a37.57,37.57,0,0,1,1.7-9.68q4,.62,6.17,7.13a20.53,20.53,0,0,0,7.57,10l1.47,4.5Z"/><path id="Path-2-Copy-4-4" data-name="Path-2-Copy-4" class="cls-7" d="M1463,1824.55q10.27-28.8,24.72-16.26c14.44,12.52-8.34,5.73-4.17,19.71s8.83,0,23.94,0-8.22-19.71,0-19.71,14.94-2.29,14.94,4.4V1828c0,4.17-3.61,14-9.27,14s0,4.12,0,4.12l20.77-4.12v-14s-11.89-3.45,0-3.45,12.11,4.34,12.11,9.18v12.36s.11-4.06-6,0q-6.11,4.07-6.11,8.41H1439l-24.77-16.26s-18.56-13,0-8.74,19,20.55,24.77,4.23,2.5-16.65,4.11-21a37.68,37.68,0,0,1,4.61-8.69q3.66,1.83,3.67,8.69a20.52,20.52,0,0,0,4.11,11.86v4.73Z"/></g><g id="Group-Copy-3"><path id="Path-2-5" data-name="Path-2" class="cls-7" d="M2917,1816.55q10.27-28.8,24.72-16.26c14.44,12.52-8.34,5.73-4.17,19.71s8.83,0,23.94,0-8.22-19.71,0-19.71,14.94-2.29,14.94,4.4V1820c0,4.17-3.61,14-9.27,14s0,4.12,0,4.12l20.77-4.12v-14s-11.89-3.45,0-3.45,12.11,4.34,12.11,9.18v12.36s.11-4.06-6,0q-6.11,4.07-6.11,8.41H2893l-24.77-16.26s-18.56-13,0-8.74,19.05,20.55,24.77,4.23,2.5-16.65,4.11-21a37.68,37.68,0,0,1,4.61-8.69q3.66,1.83,3.67,8.69a20.52,20.52,0,0,0,4.11,11.86v4.73Z"/><path id="Path-2-Copy-5-4" data-name="Path-2-Copy" class="cls-7" d="M2837,1791.55q10.27-28.8,24.72-16.26c14.44,12.52-8.34,5.73-4.17,19.71s8.83,0,23.94,0-8.22-19.71,0-19.71,14.94-2.29,14.94,4.4V1795c0,4.17-3.61,14-9.27,14s0,4.12,0,4.12l20.77-4.12v-14s-11.89-3.45,0-3.45,12.11,4.34,12.11,9.18v12.36s.11-4.06-6,0q-6.11,4.07-6.11,8.41H2813l-24.77-16.26s-18.56-13,0-8.74,19.05,20.55,24.77,4.23,2.5-16.65,4.11-21a37.68,37.68,0,0,1,4.61-8.69q3.66,1.83,3.67,8.69a20.52,20.52,0,0,0,4.11,11.86v4.73Z"/><path id="Path-2-Copy-3-6" data-name="Path-2-Copy-3" class="cls-7" d="M2706,1791.55q10.27-28.8,24.72-16.26c14.44,12.52-8.34,5.73-4.17,19.71s8.83,0,23.94,0-8.22-19.71,0-19.71,14.94-2.29,14.94,4.4V1795c0,4.17-3.61,14-9.27,14s0,4.12,0,4.12l20.77-4.12v-14s-11.89-3.45,0-3.45,12.11,4.34,12.11,9.18v12.36s.11-4.06-6,0q-6.11,4.07-6.11,8.41H2682l-24.77-16.26s-18.56-13,0-8.74,19.05,20.55,24.77,4.23,2.5-16.65,4.11-21a37.68,37.68,0,0,1,4.61-8.69q3.66,1.83,3.67,8.69a20.52,20.52,0,0,0,4.11,11.86v4.73Z"/><path id="Path-2-Copy-2-6" data-name="Path-2-Copy-2" class="cls-7" d="M2626,1766.55q10.27-28.8,24.72-16.26c14.44,12.52-8.34,5.73-4.17,19.71s8.83,0,23.94,0-8.22-19.71,0-19.71,14.94-2.29,14.94,4.4V1770c0,4.17-3.61,14-9.27,14s0,4.12,0,4.12l20.77-4.12v-14s-11.89-3.45,0-3.45,12.11,4.34,12.11,9.18v12.36s.11-4.06-6,0q-6.11,4.07-6.11,8.41H2602l-24.77-16.26s-18.56-13,0-8.74,19.05,20.55,24.77,4.23,2.5-16.65,4.11-21a37.68,37.68,0,0,1,4.61-8.69q3.66,1.83,3.67,8.69a20.52,20.52,0,0,0,4.11,11.86v4.73Z"/><path id="Path-2-Copy-5-5" data-name="Path-2-Copy-5" class="cls-7" d="M2395.14,1800.31q.89-30.55,18.49-23.11c17.6,7.46-6.15,8,2.13,20s8.4-2.73,22.76-7.4-13.9-16.21-6.09-18.75,13.51-6.78,15.57-.43l4.74,14.56c1.29,4,.88,14.41-4.51,16.16s1.27,3.92,1.27,3.92L2468,1795l-4.32-13.29s-12.37.39-1.07-3.28,12.86.38,14.36,5l3.82,11.76s-1.15-3.9-5.71,1.85q-4.55,5.76-3.21,9.88l-90.23,29.32-28.58-7.8s-21.66-6.61-2.7-8.32,24.46,13.65,24.86-3.63-2.76-16.6-2.59-21.29a37.57,37.57,0,0,1,1.7-9.68q4,.62,6.17,7.13a20.53,20.53,0,0,0,7.57,10l1.47,4.5Z"/><path id="Path-2-Copy-4-5" data-name="Path-2-Copy-4" class="cls-7" d="M2486,1779.05q10.27-28.8,24.72-16.26c14.44,12.52-8.34,5.73-4.17,19.71s8.83,0,23.94,0-8.22-19.71,0-19.71,14.94-2.29,14.94,4.4v15.31c0,4.17-3.61,14-9.27,14s0,4.12,0,4.12l20.77-4.12v-14s-11.89-3.45,0-3.45,12.11,4.34,12.11,9.18v12.36s.11-4.06-6,0q-6.11,4.07-6.11,8.41H2462l-24.77-16.26s-18.56-13,0-8.74,19.05,20.55,24.77,4.23,2.5-16.65,4.11-21a37.68,37.68,0,0,1,4.61-8.69q3.66,1.83,3.67,8.69a20.52,20.52,0,0,0,4.11,11.86v4.73Z"/></g><g id="Group-Copy-5"><path id="Path-2-6" data-name="Path-2" class="cls-7" d="M2514.33,1811.66q7.82-21.95,18.8-12.39c11,9.55-6.34,4.37-3.17,15s6.72,0,18.22,0-6.26-15,0-15,11.36-1.74,11.36,3.35v11.67c0,3.19-2.74,10.66-7.05,10.66s0,3.14,0,3.14l15.8-3.14v-10.66s-9-2.63,0-2.63,9.21,3.31,9.21,7v9.42s.08-3.1-4.56,0c-3.1,2.07-4.65,4.2-4.65,6.41h-72.17l-18.85-12.39s-14.11-9.9,0-6.67,14.5,15.66,18.85,3.23,1.9-12.69,3.12-16.05a29.25,29.25,0,0,1,3.51-6.62q2.79,1.39,2.79,6.62a15.62,15.62,0,0,0,3.13,9v3.61Z"/><path id="Path-2-Copy-6-2" data-name="Path-2-Copy" class="cls-7" d="M2453.33,1792.66q7.82-21.95,18.8-12.39c11,9.55-6.34,4.37-3.17,15s6.72,0,18.22,0-6.26-15,0-15,11.36-1.74,11.36,3.35v11.67c0,3.19-2.74,10.66-7.05,10.66s0,3.14,0,3.14l15.8-3.14v-10.66s-9-2.63,0-2.63,9.21,3.31,9.21,7v9.42s.08-3.1-4.56,0c-3.1,2.07-4.65,4.2-4.65,6.41h-72.17l-18.85-12.39s-14.11-9.9,0-6.67,14.5,15.66,18.85,3.23,1.9-12.69,3.12-16.05a29.25,29.25,0,0,1,3.51-6.62q2.79,1.39,2.79,6.62a15.62,15.62,0,0,0,3.13,9v3.61Z"/><path id="Path-2-Copy-3-7" data-name="Path-2-Copy-3" class="cls-7" d="M2351.33,1780.66q7.82-21.95,18.8-12.39c11,9.55-6.34,4.37-3.17,15s6.72,0,18.22,0-6.26-15,0-15,11.36-1.74,11.36,3.35v11.67c0,3.19-2.74,10.66-7.05,10.66s0,3.14,0,3.14l15.8-3.14v-10.66s-9-2.63,0-2.63,9.21,3.31,9.21,7v9.42s.08-3.1-4.56,0c-3.1,2.07-4.65,4.2-4.65,6.41h-72.17l-18.85-12.39s-14.11-9.9,0-6.67,14.5,15.66,18.85,3.23,1.9-12.69,3.12-16.05a29.25,29.25,0,0,1,3.51-6.62q2.79,1.39,2.79,6.62a15.62,15.62,0,0,0,3.13,9v3.61Z"/><path id="Path-2-Copy-2-7" data-name="Path-2-Copy-2" class="cls-7" d="M2272.33,1780.66q7.82-21.95,18.8-12.39c11,9.55-6.34,4.37-3.17,15s6.72,0,18.22,0-6.26-15,0-15,11.36-1.74,11.36,3.35v11.67c0,3.19-2.74,10.66-7.05,10.66s0,3.14,0,3.14l15.8-3.14v-10.66s-9-2.63,0-2.63,9.21,3.31,9.21,7v9.42s.08-3.1-4.56,0c-3.1,2.07-4.65,4.2-4.65,6.41h-72.17l-18.85-12.39s-14.11-9.9,0-6.67,14.5,15.66,18.85,3.23,1.9-12.69,3.12-16.05a29.25,29.25,0,0,1,3.51-6.62q2.79,1.39,2.79,6.62a15.62,15.62,0,0,0,3.13,9v3.61Z"/><path id="Path-2-Copy-5-6" data-name="Path-2-Copy-5" class="cls-7" d="M2117.15,1799.34q.67-23.27,14.07-17.59c13.4,5.68-4.68,6.11,1.62,15.25s6.4-2.08,17.33-5.63-10.58-12.33-4.63-14.27,10.27-5.17,11.85-.33l3.6,11.09c1,3,.67,11-3.43,12.29s1,3,1,3l14.07-7.87-3.29-10.12s-9.42.3-.81-2.5,9.78.3,10.92,3.8l2.91,9s-.88-3-4.34,1.41q-3.47,4.38-2.45,7.53l-68.67,22.31-21.75-5.94s-16.48-5-2.06-6.33,18.62,10.39,18.93-2.76-2.11-12.64-2-16.2a28.82,28.82,0,0,1,1.3-7.38c2.05.32,3.62,2.12,4.69,5.43a15.57,15.57,0,0,0,5.77,7.62l1.11,3.42Z"/><path id="Path-2-Copy-4-6" data-name="Path-2-Copy-4" class="cls-7" d="M2186.33,1783.16q7.82-21.95,18.8-12.39c11,9.55-6.34,4.37-3.17,15s6.72,0,18.22,0-6.26-15,0-15,11.36-1.74,11.36,3.35v11.67c0,3.19-2.74,10.66-7.05,10.66s0,3.14,0,3.14l15.8-3.14v-10.66s-9-2.63,0-2.63,9.21,3.31,9.21,7v9.42s.08-3.1-4.56,0c-3.1,2.07-4.65,4.2-4.65,6.41h-72.17l-18.85-12.39s-14.11-9.9,0-6.67,14.5,15.66,18.85,3.23,1.9-12.69,3.12-16.05a29.25,29.25,0,0,1,3.51-6.62q2.79,1.39,2.79,6.62a15.62,15.62,0,0,0,3.13,9v3.61Z"/></g><path id="Path-Copy-8" class="cls-8" d="M1319.5,1325.69c-27.86-8.7-142.82-1.43-170.71-14.11-37.24-16.94-92.58-9.87-122.17-17.48-67.39-17.35-212.36-61.47-261.09-45.78-68.64,22.09-135.73,35.69-195.9,54-90.83,27.68-162.16,48.81-235.37,48.81-75.1,0-172.53-49.44-284.88-69.93-69.75-12.72-165.36,9.79-204-10.82-100.79-53.8-218.92,41.17-320.91,41.17-40.9,0-120.44-32.09-221.25-9.3Q-763.5,1317.37-940,1408l2467.75,6Q1347.36,1334.38,1319.5,1325.69Z"/><path id="Path-Copy-9" class="cls-9" d="M2117.4,1354.17c-18.88-5.89-96.76-1-115.66-9.56-25.23-11.48-62.73-6.69-82.78-11.84-45.66-11.76-143.88-41.65-176.9-31-46.5,15-92,24.18-132.73,36.6-61.54,18.76-109.86,33.07-159.47,33.07-50.88,0-116.89-33.49-193-47.37-47.27-8.62-112,6.63-138.2-7.33-68.29-36.46-148.33,27.89-217.43,27.89-27.72,0-81.6-21.74-149.91-6.3q-45.22,10.21-164.81,71.62l1672,4.07Q2136.28,1360.06,2117.4,1354.17Z"/><path id="Path-Copy-10" class="cls-10" d="M3904.08,1149.65c-27.86-12.19-142.82-2-170.71-19.78-37.25-23.75-92.59-13.84-122.18-24.52-67.39-24.32-212.36-86.2-261.1-64.2-68.64,31-135.73,50-195.9,75.77-90.84,38.83-162.16,68.45-235.39,68.45-75.1,0-172.53-69.32-284.88-98.06-69.76-17.84-165.37,13.73-204-15.17-100.79-75.45-218.93,57.73-320.92,57.73-40.91,0-120.44-45-221.26-13Q1821,1138,1644.5,1265.09l2467.84,8.41Q3932,1161.84,3904.08,1149.65Z"/><path id="Path-Copy-12" class="cls-11" d="M-50.24,1205.65c27.86-12.19,142.82-2,170.71-19.78,37.25-23.75,92.59-13.84,122.18-24.52,67.39-24.32,212.37-86.2,261.1-64.2,68.64,31,135.73,50,195.91,75.77,90.83,38.83,162.16,68.45,235.38,68.45,75.1,0,172.53-69.32,284.88-98.06,69.76-17.84,165.37,13.73,204-15.17,100.79-75.45,218.93,57.73,320.92,57.73,40.91,0,120.45-45,221.26-13q66.76,21.15,243.26,148.26L-258.5,1329.5Q-78.11,1217.84-50.24,1205.65Z"/><path id="Path-Copy-11" class="cls-12" d="M3054.4,1354.17c-18.88-5.89-96.76-1-115.66-9.56-25.23-11.48-62.73-6.69-82.78-11.84-45.66-11.76-143.88-41.65-176.9-31-46.5,15-92,24.18-132.73,36.6-61.54,18.76-109.86,33.07-159.47,33.07-50.88,0-116.89-33.49-193-47.37-47.27-8.62-112,6.63-138.2-7.33-68.29-36.46-148.33,27.89-217.43,27.89-27.72,0-81.6-21.74-149.91-6.3q-45.22,10.21-164.81,71.62l1672,4.07Q3073.28,1360.06,3054.4,1354.17Z"/><circle id="Oval-Copy" class="cls-13" cx="1499.75" cy="472.56" r="542.25"/><circle id="Oval" class="cls-14" cx="1499.75" cy="472.56" r="326.75"/><g id="Group-2" data-name="Group"><path id="Path-2-Copy-13" class="cls-15" d="M1136.73,1452.5c-27.31,0-53.57,11.5-16.16,11.5H1227Q1164,1452.5,1136.73,1452.5Z"/><path id="Path-2-Copy-14" class="cls-16" d="M1198.73,1471c-27.31,0-53.57,11.5-16.16,11.5H1289Q1226,1471,1198.73,1471Z"/><path id="Path-2-Copy-15" class="cls-17" d="M1261.23,1453c-27.31,0-53.57,11.5-16.16,11.5H1351.5Q1288.53,1453,1261.23,1453Z"/><path id="Path-2-Copy-18" class="cls-18" d="M1396.23,1455c-27.31,0-53.57,11.5-16.16,11.5H1486.5Q1423.53,1455,1396.23,1455Z"/><path id="Path-2-Copy-17" class="cls-19" d="M1458.73,1473.5c-27.31,0-53.57,11.5-16.16,11.5H1549Q1486,1473.5,1458.73,1473.5Z"/><path id="Path-2-Copy-16" class="cls-20" d="M1521.73,1455.5c-27.31,0-53.57,11.5-16.16,11.5H1612Q1549,1455.5,1521.73,1455.5Z"/><path id="Path-2-Copy-21" class="cls-21" d="M1636.23,1455.5c-27.31,0-53.57,11.5-16.16,11.5H1726.5Q1663.53,1455.5,1636.23,1455.5Z"/><path id="Path-2-Copy-20" class="cls-22" d="M1699.23,1474.5c-27.31,0-53.57,11.5-16.16,11.5H1789.5Q1726.53,1474.5,1699.23,1474.5Z"/><path id="Path-2-Copy-22" class="cls-23" d="M1584.23,1493c-27.31,0-53.57,11.5-16.16,11.5H1674.5Q1611.53,1493,1584.23,1493Z"/><path id="Path-2-Copy-23" class="cls-24" d="M1326.73,1487.5c-27.31,0-53.57,11.5-16.16,11.5H1417Q1354,1487.5,1326.73,1487.5Z"/><path id="Path-2-Copy-24" class="cls-25" d="M1466.23,1504c-27.31,0-53.57,11.5-16.16,11.5H1556.5Q1493.53,1504,1466.23,1504Z"/><path id="Path-2-Copy-25" class="cls-26" d="M1349.23,1523c-27.31,0-53.57,11.5-16.16,11.5H1439.5Q1376.53,1523,1349.23,1523Z"/><path id="Path-2-Copy-26" class="cls-27" d="M1496.73,1541c-27.31,0-53.57,11.5-16.16,11.5H1587Q1524,1541,1496.73,1541Z"/><path id="Path-2-Copy-27" class="cls-28" d="M1590.23,1529c-27.31,0-53.57,11.5-16.16,11.5H1680.5Q1617.53,1529,1590.23,1529Z"/><path id="Path-2-Copy-28" class="cls-29" d="M1354.73,1557.5c-27.31,0-53.57,11.5-16.16,11.5H1445Q1382,1557.5,1354.73,1557.5Z"/><path id="Path-2-Copy-32" class="cls-30" d="M1074.23,1571c-27.31,0-53.57,11.5-16.16,11.5H1164.5Q1101.53,1571,1074.23,1571Z"/><path id="Path-2-Copy-33" class="cls-31" d="M749.23,1479c-27.31,0-53.57,11.5-16.16,11.5H839.5Q776.53,1479,749.23,1479Z"/><path id="Path-2-Copy-34" class="cls-32" d="M518.73,1469c-27.31,0-53.57,11.5-16.16,11.5H609Q546,1469,518.73,1469Z"/><path id="Path-2-Copy-35" class="cls-33" d="M498.23,1571c-27.31,0-53.57,11.5-16.16,11.5H588.5Q525.53,1571,498.23,1571Z"/><path id="Path-2-Copy-36" class="cls-34" d="M784.23,1571c-27.31,0-53.57,11.5-16.16,11.5H874.5Q811.53,1571,784.23,1571Z"/><path id="Path-2-Copy-37" class="cls-35" d="M510.23,1656.5c-27.31,0-53.57,11.5-16.16,11.5H600.5Q537.53,1656.5,510.23,1656.5Z"/><path id="Path-2-Copy-38" class="cls-36" d="M817.23,1665.5c-27.31,0-53.57,11.5-16.16,11.5H907.5Q844.53,1665.5,817.23,1665.5Z"/><path id="Path-2-Copy-39" class="cls-37" d="M1181.73,1682c-27.31,0-53.57,11.5-16.16,11.5H1272Q1209,1682,1181.73,1682Z"/><path id="Path-2-Copy-40" class="cls-38" d="M1534.73,1621.5c-27.31,0-53.57,11.5-16.16,11.5H1625Q1562,1621.5,1534.73,1621.5Z"/><path id="Path-2-Copy-41" class="cls-39" d="M2061.73,1624.5c-27.31,0-53.57,11.5-16.15,11.5H2152Q2089,1624.5,2061.73,1624.5Z"/><path id="Path-2-Copy-42" class="cls-40" d="M1877.23,1531c-27.31,0-53.57,11.5-16.15,11.5H1967.5Q1904.53,1531,1877.23,1531Z"/><path id="Path-2-Copy-43" class="cls-41" d="M1928.73,1466.5c-27.31,0-53.57,11.5-16.15,11.5H2019Q1956,1466.5,1928.73,1466.5Z"/><path id="Path-2-Copy-44" class="cls-42" d="M2115.23,1459.5c-27.31,0-53.57,11.5-16.15,11.5H2205.5Q2142.53,1459.5,2115.23,1459.5Z"/><path id="Path-2-Copy-45" class="cls-43" d="M2316.73,1462.5c-27.31,0-53.57,11.5-16.15,11.5H2407Q2344,1462.5,2316.73,1462.5Z"/><path id="Path-2-Copy-46" class="cls-44" d="M2461.73,1546c-27.31,0-53.57,11.5-16.15,11.5H2552Q2489,1546,2461.73,1546Z"/><path id="Path-2-Copy-47" class="cls-45" d="M2172.73,1550c-27.31,0-53.57,11.5-16.15,11.5H2263Q2200,1550,2172.73,1550Z"/><path id="Path-2-Copy-48" class="cls-46" d="M2359.23,1631c-27.31,0-53.57,11.5-16.15,11.5H2449.5Q2386.53,1631,2359.23,1631Z"/><path id="Path-2-Copy-49" class="cls-47" d="M2426.23,1692.5c-27.31,0-53.57,11.5-16.15,11.5H2516.5Q2453.53,1692.5,2426.23,1692.5Z"/><path id="Path-2-Copy-50" class="cls-48" d="M2086.23,1695.5c-27.31,0-53.57,11.5-16.15,11.5H2176.5Q2113.53,1695.5,2086.23,1695.5Z"/><path id="Path-2-Copy-51" class="cls-49" d="M1823.23,1629c-27.31,0-53.57,11.5-16.16,11.5H1913.5Q1850.53,1629,1823.23,1629Z"/><path id="Path-2-Copy-52" class="cls-50" d="M1877.23,1695c-27.31,0-53.57,11.5-16.15,11.5H1967.5Q1904.53,1695,1877.23,1695Z"/><path id="Path-2-Copy-29" class="cls-51" d="M1209.23,1522.5c-27.31,0-53.57,11.5-16.16,11.5H1299.5Q1236.53,1522.5,1209.23,1522.5Z"/><path id="Path-2-Copy-30" class="cls-52" d="M1209.23,1497.5c-27.31,0-53.57,11.5-16.16,11.5H1299.5Q1236.53,1497.5,1209.23,1497.5Z"/><path id="Path-2-Copy-31" class="cls-53" d="M1709.23,1513.5c-27.31,0-53.57,11.5-16.16,11.5H1799.5Q1736.53,1513.5,1709.23,1513.5Z"/><path id="Path-2-Copy-19" class="cls-54" d="M1760.73,1456c-27.31,0-53.57,11.5-16.16,11.5H1851Q1788,1456,1760.73,1456Z"/><path id="Path-Copy" class="cls-55" d="M1539.23,1416.76q1016.73-5.52,1066.69,0c50,5.53,69.56,11.65-118.64,16.69s-340.2,10.85-450.19-2.92-190.14,19.2-403.23,16.29-252.11-10.83-46.25-16.29-290.25-5.36-224.57-9.56Q1428.71,1416.76,1539.23,1416.76Z"/><path id="Path-Copy-2" class="cls-55" d="M2067.73,1500.26q1016.73-5.52,1066.69,0c50,5.53,69.56,11.65-118.64,16.69s-340.2,10.85-450.19-2.92-190.14,19.2-403.23,16.29-252.11-10.83-46.25-16.29-290.25-5.36-224.57-9.56Q1957.21,1500.26,2067.73,1500.26Z"/><path id="Path-Copy-3" class="cls-55" d="M1606.23,1585.26q1016.73-5.52,1066.69,0c50,5.53,69.56,11.65-118.64,16.69s-340.2,10.85-450.19-2.92-190.14,19.2-403.23,16.29-252.11-10.83-46.25-16.29-290.25-5.36-224.57-9.56Q1495.71,1585.26,1606.23,1585.26Z"/><path id="Path-Copy-4" class="cls-55" d="M1454.73,1663.26q1016.73-5.52,1066.69,0c50,5.53,69.56,11.65-118.64,16.69s-340.2,10.85-450.19-2.92-190.14,19.2-403.23,16.29-252.11-10.83-46.25-16.29-290.25-5.36-224.57-9.56Q1344.21,1663.26,1454.73,1663.26Z"/><path id="Path-Copy-5" class="cls-55" d="M1257.27,1610.26q-1016.73-5.52-1066.69,0c-50,5.53-69.56,11.65,118.64,16.69s340.2,10.85,450.19-2.92,190.14,19.2,403.23,16.29,252.11-10.83,46.25-16.29,290.25-5.36,224.57-9.56Q1367.79,1610.26,1257.27,1610.26Z"/><path id="Path-Copy-6" class="cls-55" d="M931.27,1517.26q-1016.73-5.52-1066.69,0c-50,5.53-69.56,11.65,118.64,16.69s340.2,10.85,450.19-2.92,190.14,19.2,403.23,16.29,252.11-10.83,46.25-16.29,290.25-5.36,224.57-9.56Q1041.79,1517.26,931.27,1517.26Z"/><path id="Path-Copy-7" class="cls-55" d="M992.27,1419.26q-1016.73-5.52-1066.69,0c-50,5.53-69.56,11.65,118.64,16.69s340.2,10.85,450.19-2.92,190.14,19.2,403.23,16.29,252.11-10.83,46.25-16.29,290.25-5.36,224.57-9.56Q1102.79,1419.26,992.27,1419.26Z"/></g><g id="Star"><path id="Fill-459" class="cls-56" d="M128.5,412.5a3,3,0,1,1-3-3,3,3,0,0,1,3,3"/><path id="Fill-465" class="cls-56" d="M564,190.5a3,3,0,1,1-3-3,3,3,0,0,1,3,3"/><path id="Fill-469" class="cls-56" d="M288,405.5a3,3,0,1,1-3-3,3,3,0,0,1,3,3"/><path id="Fill-476" class="cls-56" d="M32.5,263a3,3,0,1,1-3-3,3,3,0,0,1,3,3"/><path id="Fill-479" class="cls-56" d="M6,133a3,3,0,1,1-3-3,3,3,0,0,1,3,3"/><path id="Fill-482" class="cls-56" d="M292.5,137a3,3,0,1,1-3-3,3,3,0,0,1,3,3"/><path id="Fill-489" class="cls-56" d="M659.5,102.5a3,3,0,1,1-3-3,3,3,0,0,1,3,3"/><path id="Fill-493" class="cls-56" d="M479,94a3,3,0,1,1-3-3,3,3,0,0,1,3,3"/><path id="Fill-495" class="cls-56" d="M401,120.5a3,3,0,1,1-3-3,3,3,0,0,1,3,3"/><path id="Fill-507" class="cls-56" d="M835.5,230.5a3,3,0,1,0,3-3,3,3,0,0,0-3,3"/><path id="Fill-511" class="cls-56" d="M1145,358a3,3,0,1,0,3-3,3,3,0,0,0-3,3"/><path id="Fill-527" class="cls-56" d="M808,3a3,3,0,1,0,3-3,3,3,0,0,0-3,3"/><path id="Fill-465-2" data-name="Fill-465" class="cls-56" d="M2009,190.5a3,3,0,1,1-3-3,3,3,0,0,1,3,3"/><path id="Fill-469-2" data-name="Fill-469" class="cls-56" d="M1732.5,405.5a3,3,0,1,1-3-3,3,3,0,0,1,3,3"/><path id="Fill-482-2" data-name="Fill-482" class="cls-56" d="M1737.5,137a3,3,0,1,1-3-3,3,3,0,0,1,3,3"/><path id="Fill-489-2" data-name="Fill-489" class="cls-56" d="M2105.5,102.5a3,3,0,1,1-3-3,3,3,0,0,1,3,3"/><path id="Fill-493-2" data-name="Fill-493" class="cls-56" d="M1924,94a3,3,0,1,1-3-3,3,3,0,0,1,3,3"/><path id="Fill-495-2" data-name="Fill-495" class="cls-56" d="M1846,120.5a3,3,0,1,1-3-3,3,3,0,0,1,3,3"/><path id="Fill-507-2" data-name="Fill-507" class="cls-56" d="M2281,230.5a3,3,0,1,0,3-3,3,3,0,0,0-3,3"/><path id="Fill-511-2" data-name="Fill-511" class="cls-56" d="M2591,358a3,3,0,1,0,3-3,3,3,0,0,0-3,3"/><path id="Fill-512" class="cls-56" d="M2612,451a3,3,0,1,0,3-3,3,3,0,0,0-3,3"/><path id="Fill-516" class="cls-56" d="M2975,226a3,3,0,1,0,3-3,3,3,0,0,0-3,3"/><path id="Fill-519" class="cls-56" d="M2889,297.5a3,3,0,1,0,3-3,3,3,0,0,0-3,3"/><path id="Fill-520" class="cls-56" d="M2882,87a3,3,0,1,0,3-3,3,3,0,0,0-3,3"/><path id="Fill-525" class="cls-56" d="M2609.5,161a3,3,0,1,0,3-3,3,3,0,0,0-3,3"/><path id="Fill-527-2" data-name="Fill-527" class="cls-56" d="M2253.5,3a3,3,0,1,0,3-3,3,3,0,0,0-3,3"/><path id="Fill-530" class="cls-56" d="M2655.5,69.5a3,3,0,1,0,3-3,3,3,0,0,0-3,3"/><path id="Fill-465-3" data-name="Fill-465" class="cls-56" d="M2026,570a3,3,0,1,1-3-3,3,3,0,0,1,3,3"/><path id="Fill-469-3" data-name="Fill-469" class="cls-56" d="M1749.5,785a3,3,0,1,1-3-3,3,3,0,0,1,3,3"/><path id="Fill-482-3" data-name="Fill-482" class="cls-56" d="M1755,516a3,3,0,1,1-3-3,3,3,0,0,1,3,3"/><path id="Fill-489-3" data-name="Fill-489" class="cls-56" d="M2122.5,482a3,3,0,1,1-3-3,3,3,0,0,1,3,3"/><path id="Fill-493-3" data-name="Fill-493" class="cls-56" d="M1941.5,473a3,3,0,1,1-3-3,3,3,0,0,1,3,3"/><path id="Fill-495-3" data-name="Fill-495" class="cls-56" d="M1863,499a3,3,0,1,1-3-3,3,3,0,0,1,3,3"/><path id="Fill-507-3" data-name="Fill-507" class="cls-56" d="M2298.5,609.5a3,3,0,1,0,3-3,3,3,0,0,0-3,3"/><path id="Fill-511-3" data-name="Fill-511" class="cls-56" d="M2607.5,737.5a3,3,0,1,0,3-3,3,3,0,0,0-3,3"/><path id="Fill-512-2" data-name="Fill-512" class="cls-56" d="M2628.5,830.5a3,3,0,1,0,3-3,3,3,0,0,0-3,3"/><path id="Fill-516-2" data-name="Fill-516" class="cls-56" d="M2992,605.5a3,3,0,1,0,3-3,3,3,0,0,0-3,3"/><path id="Fill-519-2" data-name="Fill-519" class="cls-56" d="M2906,676.5a3,3,0,1,0,3-3,3,3,0,0,0-3,3"/><path id="Fill-520-2" data-name="Fill-520" class="cls-56" d="M2899.5,465.5a3,3,0,1,0,3-3,3,3,0,0,0-3,3"/><path id="Fill-525-2" data-name="Fill-525" class="cls-56" d="M2627,539.5a3,3,0,1,0,3-3,3,3,0,0,0-3,3"/><path id="Fill-527-3" data-name="Fill-527" class="cls-56" d="M2271,382a3,3,0,1,0,3-3,3,3,0,0,0-3,3"/><path id="Fill-530-2" data-name="Fill-530" class="cls-56" d="M2672.5,448.5a3,3,0,1,0,3-3,3,3,0,0,0-3,3"/><path id="Fill-459-2" data-name="Fill-459" class="cls-56" d="M128.5,791.5a3,3,0,1,1-3-3,3,3,0,0,1,3,3"/><path id="Fill-465-4" data-name="Fill-465" class="cls-56" d="M564,570a3,3,0,1,1-3-3,3,3,0,0,1,3,3"/><path id="Fill-469-4" data-name="Fill-469" class="cls-56" d="M288,785a3,3,0,1,1-3-3,3,3,0,0,1,3,3"/><path id="Fill-476-2" data-name="Fill-476" class="cls-56" d="M32.5,642a3,3,0,1,1-3-3,3,3,0,0,1,3,3"/><path id="Fill-479-2" data-name="Fill-479" class="cls-56" d="M6,512a3,3,0,1,1-3-3,3,3,0,0,1,3,3"/><path id="Fill-482-4" data-name="Fill-482" class="cls-56" d="M292.5,516a3,3,0,1,1-3-3,3,3,0,0,1,3,3"/><path id="Fill-489-4" data-name="Fill-489" class="cls-56" d="M659.5,482a3,3,0,1,1-3-3,3,3,0,0,1,3,3"/><path id="Fill-493-4" data-name="Fill-493" class="cls-56" d="M479,473a3,3,0,1,1-3-3,3,3,0,0,1,3,3"/><path id="Fill-495-4" data-name="Fill-495" class="cls-56" d="M401,499a3,3,0,1,1-3-3,3,3,0,0,1,3,3"/><path id="Fill-507-4" data-name="Fill-507" class="cls-56" d="M835.5,609.5a3,3,0,1,0,3-3,3,3,0,0,0-3,3"/><path id="Fill-527-4" data-name="Fill-527" class="cls-56" d="M808,382a3,3,0,1,0,3-3,3,3,0,0,0-3,3"/><path id="Fill-459-3" data-name="Fill-459" class="cls-56" d="M128.5,1178a3,3,0,1,1-3-3,3,3,0,0,1,3,3"/><path id="Fill-465-5" data-name="Fill-465" class="cls-56" d="M564,957.5a3,3,0,1,1-3-3,3,3,0,0,1,3,3"/><path id="Fill-469-5" data-name="Fill-469" class="cls-56" d="M288,1172.5a3,3,0,1,1-3-3,3,3,0,0,1,3,3"/><path id="Fill-476-3" data-name="Fill-476" class="cls-56" d="M32.5,1028.5a3,3,0,1,1-3-3,3,3,0,0,1,3,3"/><path id="Fill-479-3" data-name="Fill-479" class="cls-56" d="M6,899.5a3,3,0,1,1-3-3,3,3,0,0,1,3,3"/><path id="Fill-482-5" data-name="Fill-482" class="cls-56" d="M292.5,903a3,3,0,1,1-3-3,3,3,0,0,1,3,3"/><path id="Fill-489-5" data-name="Fill-489" class="cls-56" d="M659.5,868a3,3,0,1,1-3-3,3,3,0,0,1,3,3"/><path id="Fill-493-5" data-name="Fill-493" class="cls-56" d="M479,860a3,3,0,1,1-3-3,3,3,0,0,1,3,3"/><path id="Fill-495-5" data-name="Fill-495" class="cls-56" d="M401,886a3,3,0,1,1-3-3,3,3,0,0,1,3,3"/><path id="Fill-507-5" data-name="Fill-507" class="cls-56" d="M835.5,997.5a3,3,0,1,0,3-3,3,3,0,0,0-3,3"/><path id="Fill-512-3" data-name="Fill-512" class="cls-56" d="M1166,1217a3,3,0,1,0,3-3,3,3,0,0,0-3,3"/><path id="Fill-527-5" data-name="Fill-527" class="cls-56" d="M808,770a3,3,0,1,0,3-3,3,3,0,0,0-3,3"/><path id="Fill-459-4" data-name="Fill-459" class="cls-56" d="M1574,1214.5a3,3,0,1,1-3-3,3,3,0,0,1,3,3"/><path id="Fill-465-6" data-name="Fill-465" class="cls-56" d="M2009,993.5a3,3,0,1,1-3-3,3,3,0,0,1,3,3"/><path id="Fill-469-6" data-name="Fill-469" class="cls-56" d="M1732.5,1209.5a3,3,0,1,1-3-3,3,3,0,0,1,3,3"/><path id="Fill-482-6" data-name="Fill-482" class="cls-56" d="M1737.5,940a3,3,0,1,1-3-3,3,3,0,0,1,3,3"/><path id="Fill-489-6" data-name="Fill-489" class="cls-56" d="M2105.5,905a3,3,0,1,1-3-3,3,3,0,0,1,3,3"/><path id="Fill-493-6" data-name="Fill-493" class="cls-56" d="M1924,897a3,3,0,1,1-3-3,3,3,0,0,1,3,3"/><path id="Fill-495-6" data-name="Fill-495" class="cls-56" d="M1846,922.5a3,3,0,1,1-3-3,3,3,0,0,1,3,3"/><path id="Fill-507-6" data-name="Fill-507" class="cls-56" d="M2281,1033.5a3,3,0,1,0,3-3,3,3,0,0,0-3,3"/><path id="Fill-511-4" data-name="Fill-511" class="cls-56" d="M2591,1160.5a3,3,0,1,0,3-3,3,3,0,0,0-3,3"/><path id="Fill-512-4" data-name="Fill-512" class="cls-56" d="M2612,1254a3,3,0,1,0,3-3,3,3,0,0,0-3,3"/><path id="Fill-516-3" data-name="Fill-516" class="cls-56" d="M2975,1029.5a3,3,0,1,0,3-3,3,3,0,0,0-3,3"/><path id="Fill-519-3" data-name="Fill-519" class="cls-56" d="M2889,1100a3,3,0,1,0,3-3,3,3,0,0,0-3,3"/><path id="Fill-520-3" data-name="Fill-520" class="cls-56" d="M2882,889.5a3,3,0,1,0,3-3,3,3,0,0,0-3,3"/><path id="Fill-525-3" data-name="Fill-525" class="cls-56" d="M2609.5,962.5a3,3,0,1,0,3-3,3,3,0,0,0-3,3"/><path id="Fill-527-6" data-name="Fill-527" class="cls-56" d="M2253.5,806a3,3,0,1,0,3-3,3,3,0,0,0-3,3"/><path id="Fill-530-3" data-name="Fill-530" class="cls-56" d="M2655.5,872.5a3,3,0,1,0,3-3,3,3,0,0,0-3,3"/><path id="Fill-465-7" data-name="Fill-465" class="cls-56" d="M564,190.5a3,3,0,1,1-3-3,3,3,0,0,1,3,3"/><path id="Fill-489-7" data-name="Fill-489" class="cls-56" d="M659.5,102.5a3,3,0,1,1-3-3,3,3,0,0,1,3,3"/><path id="Fill-507-7" data-name="Fill-507" class="cls-56" d="M835.5,230.5a3,3,0,1,0,3-3,3,3,0,0,0-3,3"/><path id="Fill-527-7" data-name="Fill-527" class="cls-56" d="M808,3a3,3,0,1,0,3-3,3,3,0,0,0-3,3"/><path id="Fill-465-8" data-name="Fill-465" class="cls-56" d="M564,570a3,3,0,1,1-3-3,3,3,0,0,1,3,3"/><path id="Fill-489-8" data-name="Fill-489" class="cls-56" d="M659.5,482a3,3,0,1,1-3-3,3,3,0,0,1,3,3"/><path id="Fill-507-8" data-name="Fill-507" class="cls-56" d="M835.5,609.5a3,3,0,1,0,3-3,3,3,0,0,0-3,3"/><path id="Fill-527-8" data-name="Fill-527" class="cls-56" d="M808,382a3,3,0,1,0,3-3,3,3,0,0,0-3,3"/><path id="Fill-465-9" data-name="Fill-465" class="cls-56" d="M564,957.5a3,3,0,1,1-3-3,3,3,0,0,1,3,3"/><path id="Fill-489-9" data-name="Fill-489" class="cls-56" d="M659.5,868a3,3,0,1,1-3-3,3,3,0,0,1,3,3"/><path id="Fill-507-9" data-name="Fill-507" class="cls-56" d="M835.5,997.5a3,3,0,1,0,3-3,3,3,0,0,0-3,3"/><path id="Fill-527-9" data-name="Fill-527" class="cls-56" d="M808,770a3,3,0,1,0,3-3,3,3,0,0,0-3,3"/><path id="Fill-465-Copy-3" class="cls-56" d="M974.5,196.5a3,3,0,1,1-3-3,3,3,0,0,1,3,3"/><path id="Fill-489-Copy-3" class="cls-56" d="M1070.5,108a3,3,0,1,1-3-3,3,3,0,0,1,3,3"/><path id="Fill-507-Copy-3" class="cls-56" d="M1246.5,236.5a3,3,0,1,0,3-3,3,3,0,0,0-3,3"/><path id="Fill-527-Copy-3" class="cls-56" d="M1218.5,9a3,3,0,1,0,3-3,3,3,0,0,0-3,3"/><path id="Fill-465-Copy-2" class="cls-56" d="M974.5,575.5a3,3,0,1,1-3-3,3,3,0,0,1,3,3"/><path id="Fill-489-Copy-2" class="cls-56" d="M1070.5,486.5a3,3,0,1,1-3-3,3,3,0,0,1,3,3"/><path id="Fill-507-Copy-2" class="cls-56" d="M1246.5,615.5a3,3,0,1,0,3-3,3,3,0,0,0-3,3"/><path id="Fill-527-Copy-2" class="cls-56" d="M1218.5,388.5a3,3,0,1,0,3-3,3,3,0,0,0-3,3"/><path id="Fill-465-Copy" class="cls-56" d="M974.5,962.5a3,3,0,1,1-3-3,3,3,0,0,1,3,3"/><path id="Fill-489-Copy" class="cls-56" d="M1070.5,874a3,3,0,1,1-3-3,3,3,0,0,1,3,3"/><path id="Fill-507-Copy" class="cls-56" d="M1246.5,1002.5a3,3,0,1,0,3-3,3,3,0,0,0-3,3"/><path id="Fill-527-Copy" class="cls-56" d="M1218.5,775a3,3,0,1,0,3-3,3,3,0,0,0-3,3"/><path id="Fill-465-Copy-6" class="cls-56" d="M1356.5,204a3,3,0,1,1-3-3,3,3,0,0,1,3,3"/><path id="Fill-489-Copy-6" class="cls-56" d="M1452,115.5a3,3,0,1,1-3-3,3,3,0,0,1,3,3"/><path id="Fill-507-Copy-6" class="cls-56" d="M1628,243.5a3,3,0,1,0,3-3,3,3,0,0,0-3,3"/><path id="Fill-527-Copy-6" class="cls-56" d="M1600.5,16a3,3,0,1,0,3-3,3,3,0,0,0-3,3"/><path id="Fill-465-Copy-5" class="cls-56" d="M1356.5,583a3,3,0,1,1-3-3,3,3,0,0,1,3,3"/><path id="Fill-489-Copy-5" class="cls-56" d="M1452,495a3,3,0,1,1-3-3,3,3,0,0,1,3,3"/><path id="Fill-507-Copy-5" class="cls-56" d="M1628,623a3,3,0,1,0,3-3,3,3,0,0,0-3,3"/><path id="Fill-527-Copy-5" class="cls-56" d="M1600.5,395.5a3,3,0,1,0,3-3,3,3,0,0,0-3,3"/><path id="Fill-465-Copy-4" class="cls-56" d="M1356.5,969.5a3,3,0,1,1-3-3,3,3,0,0,1,3,3"/><path id="Fill-489-Copy-4" class="cls-56" d="M1452,881a3,3,0,1,1-3-3,3,3,0,0,1,3,3"/><path id="Fill-507-Copy-4" class="cls-56" d="M1628,1009.5a3,3,0,1,0,3-3,3,3,0,0,0-3,3"/><path id="Fill-527-Copy-4" class="cls-56" d="M1600.5,782a3,3,0,1,0,3-3,3,3,0,0,0-3,3"/></g><path id="Path-2-7" data-name="Path-2" class="cls-7" d="M1179.73,1817.18q-80.74-17.51-121.25,32c-40.5,49.5-25.25,165.5,0,197s90.25,30.75,90.25,0-41.75-23-53.75-11.5-42.5,8-36.5-58.25.5-98.75,42.75-117.75q42.26-19,99.25,0,58.5,19,78,9.5,17.25,9.49,167,7.25,19,1.5,11-29.5c-8-31,6.5,4.75,18,22.25s65.75,28,65.75-9.5c28.25,0,44.25,11.25,47.25,4s12-10-47.25-32.5c-4.75-32.5-18.25-90.25,21-159.25s15.5-87.75,17-120,17.25-26.5,6.75-61.75,4.5-49.75-3.75-82.25-18-3.75-35.5,24-27.25,11-33.75,11-11.25,9.25-21.75,5.25-34.5-40.25-47.5-40.25-4.5,34.75-4.5,46.5,12.75,31,4.5,50.75,4,17-3.25,28,.75,40.5-81,40.5-123.25,129.75-123.25,226.25c0,15.15-2.63,16.29-7.75,18.25-6.9,2.63-17.06,2.75-19.5,2.75Q1203.74,1819.93,1179.73,1817.18Z"/></g></g></g></g></svg>